<?xml version="1.0" standalone="no"?>
<!DOCTYPE svg PUBLIC "-//W3C//DTD SVG 1.1//EN" "http://www.w3.org/Graphics/SVG/1.1/DTD/svg11.dtd" >
<svg xmlns="http://www.w3.org/2000/svg">
<metadata>Generated by IcoMoon</metadata>
<defs>
<font id="icomoon" horiz-adv-x="1024">
<font-face units-per-em="1024" ascent="960" descent="-64" />
<missing-glyph horiz-adv-x="1024" />
<glyph unicode="&#x20;" horiz-adv-x="512" d="" />
<glyph unicode="&#xe900;" glyph-name="member3" horiz-adv-x="1021" d="M531.721-25.46c-242.221 0-439.267 197.046-439.267 439.267s197.046 439.267 439.267 439.267 439.267-197.046 439.267-439.267-197.046-439.267-439.267-439.267zM531.721 806.835c-216.72 0-393.028-176.308-393.028-393.028s176.308-393.028 393.028-393.028 393.028 176.308 393.028 393.028c0 216.72-176.308 393.028-393.028 393.028zM531.721 379.128c31.928 0 60.827 12.97 81.75 33.87 20.877 20.9 33.847 49.799 33.847 81.727s-12.97 60.827-33.847 81.727c-20.923 20.923-49.822 33.87-81.75 33.87s-60.827-12.947-81.75-33.87c-20.9-20.9-33.847-49.799-33.847-81.727s12.947-60.827 33.847-81.727c20.923-20.9 49.822-33.87 81.75-33.87zM716.675 356.008c15.929 0 30.379 6.45 40.875 16.877 10.473 10.473 16.923 24.923 16.923 40.921 0 15.929-6.45 30.379-16.923 40.875s-24.946 16.923-40.875 16.923c-15.975 0-30.425-6.45-40.921-16.923-10.427-10.473-16.877-24.923-16.877-40.875 0-15.975 6.45-30.425 16.877-40.921 10.496-10.473 24.946-16.877 40.921-16.877zM716.675 342.368c-30.772 0-53.914-9.386-67.439-22.403-25.778 21.224-66.537 36.043-117.515 36.043-52.411 0-92.362-14.981-117.723-36.159-13.802 13.062-37.176 22.541-67.231 22.541-50.585 0-80.918-25.2-80.918-50.446 0-12.6 30.333-25.269 80.918-25.269 13.964 0 26.495 1.202 37.523 3.098-0.254-2.127-0.925-4.185-0.925-6.265 0-23.119 55.602-46.239 148.357-46.239 86.975 0 148.357 23.119 148.357 46.239 0 1.965-0.254 3.93-0.486 5.895 10.704-1.665 23.027-2.728 37.083-2.728 47.418 0 80.918 12.669 80.918 25.269 0 25.223-31.743 50.423-80.918 50.423zM346.766 356.008c15.929 0 30.379 6.45 40.875 16.923s16.923 24.923 16.923 40.875-6.45 30.379-16.923 40.875c-10.496 10.45-24.946 16.923-40.875 16.923-15.975 0-30.425-6.473-40.921-16.923-10.45-10.473-16.877-24.923-16.877-40.875s6.427-30.379 16.877-40.875c10.496-10.473 24.946-16.923 40.921-16.923z" />
<glyph unicode="&#xe901;" glyph-name="member1" horiz-adv-x="1021" d="M531.721-25.46c-242.221 0-439.267 197.046-439.267 439.267s197.046 439.267 439.267 439.267 439.267-197.046 439.267-439.267-197.046-439.267-439.267-439.267zM531.721 806.835c-216.72 0-393.028-176.308-393.028-393.028s176.308-393.028 393.028-393.028 393.028 176.308 393.028 393.028c0 216.72-176.308 393.028-393.028 393.028zM531.721 356.008c0 0-184.954 0-254.312-161.835 0 0 115.828-46.239 254.312-46.239s254.312 46.239 254.312 46.239c-69.358 161.835-254.312 161.835-254.312 161.835zM531.721 379.128c69.358 0 115.596 69.358 115.596 184.954s-115.596 115.596-115.596 115.596-115.596 0-115.596-115.596 46.239-184.954 115.596-184.954z" />
<glyph unicode="&#xe902;" glyph-name="search" horiz-adv-x="1012" d="M975.386-23.665c-36.399-36.414-95.434-36.414-131.85 0l-164.555 164.563c-67.653-43.372-147.631-69.268-233.97-69.268-240.286-0.002-435.086 194.792-435.086 435.086s194.8 435.088 435.088 435.088c240.301 0 435.088-194.793 435.088-435.088 0-86.332-25.889-166.308-69.26-233.977l164.546-164.548c36.414-36.414 36.414-95.449-0.002-131.856v0zM445.013 817.495c-171.627 0-310.773-139.14-310.773-310.78 0-171.632 139.142-310.773 310.773-310.773 171.638 0 310.773 139.142 310.773 310.773 0 171.64-139.135 310.78-310.773 310.78v0z" />
<glyph unicode="&#xe903;" glyph-name="member2" horiz-adv-x="1021" d="M531.721-25.46c-242.221 0-439.267 197.046-439.267 439.267s197.046 439.267 439.267 439.267 439.267-197.046 439.267-439.267-197.046-439.267-439.267-439.267zM531.721 806.835c-216.72 0-393.028-176.308-393.028-393.028s176.308-393.028 393.028-393.028 393.028 176.308 393.028 393.028c0 216.72-176.308 393.028-393.028 393.028zM601.102 359.176c0 0-142.947 0-196.514-125.075 0 0 89.495-35.719 196.514-35.719 106.996 0 196.514 35.719 196.514 35.719-53.614 125.075-196.514 125.075-196.514 125.075zM601.102 377.001c53.591 0 89.31 53.567 89.31 142.924s-89.31 89.356-89.31 89.356-89.31 0-89.31-89.356c-0.023-89.31 35.696-142.924 89.31-142.924zM427.707 437.966c17.617 0 32.737 7.283 44.736 20.461-4.462 17.964-6.913 38.471-6.913 61.497 0 34.355 13.178 55.394 29.431 68.41-17.709 40.806-67.277 40.898-67.277 40.898s-73.589 0-73.589-73.589c0.023-73.566 29.431-117.677 73.612-117.677zM497.065 380.307l-2.497 29.084c-36.020 13.779-66.861 13.872-66.861 13.872s-117.723 0-161.835-102.996c0 0 56.897-22.657 130.508-28.182 64.087 67.092 100.685 88.223 100.685 88.223z" />
<glyph unicode="&#xe904;" glyph-name="close" horiz-adv-x="1021" d="M987.703 33.679l-415.5 415.454 413.188 413.188c17.062 17.016 17.062 44.643 0 61.659s-44.62 17.016-61.636 0l-413.211-413.211-413.211 413.211c-17.016 17.016-44.643 17.016-61.659 0s-17.016-44.643 0-61.659l413.211-413.211-415.454-415.454c-17.039-17.016-17.039-44.666 0-61.659 8.485-8.531 19.651-12.762 30.818-12.762 11.144 0 22.31 4.231 30.818 12.762l415.454 415.454 415.477-415.454c8.531-8.531 19.651-12.762 30.841-12.762 11.097 0 22.31 4.231 30.841 12.762 17.039 17.016 17.039 44.643 0.023 61.682v0z" />
<glyph unicode="&#xe905;" glyph-name="star-full" d="M1024 562.95l-353.78 51.408-158.22 320.582-158.216-320.582-353.784-51.408 256-249.538-60.432-352.352 316.432 166.358 316.432-166.358-60.434 352.352 256.002 249.538z" />
<glyph unicode="&#xe906;" glyph-name="addr" horiz-adv-x="1021" d="M510.567 938.152c-271.906 0-489.782-215.541-489.782-487.17s217.83-493.158 489.782-493.158c271.975 0.023 489.805 221.529 489.805 493.158s-217.83 487.17-489.805 487.17v0zM509.919 30.234c-232.326 0-417.951 189.486-417.951 421.534 0 232.072 185.602 415.292 417.951 415.292s417.928-183.244 417.928-415.292c-0.023-232.048-185.602-421.534-417.928-421.534v0zM695.66 488.991h-144.103v144.264c0 22.564-18.264 40.829-40.806 40.829s-40.829-18.264-40.829-40.829v-144.264h-144.519c-22.541 0-40.829-18.287-40.829-40.829s18.287-40.829 40.829-40.829h144.542v-144.311c0-22.541 18.287-40.829 40.829-40.829s40.806 18.287 40.806 40.829v144.311h144.079c22.564 0 40.829 18.287 40.829 40.829-0.023 22.541-18.264 40.829-40.829 40.829v0z" />
<glyph unicode="&#xe907;" glyph-name="announce" d="M820.931 20.152l-333.578 222.382c-11.505 7.757-17.725 20.275-17.725 33.147h-0.169v0.42h-41.667l76.513-218.716c7.332-20.956-3.666-43.622-24.366-50.954l-74.813-25.897-74.639-26.158c-20.618-7.076-43.448 3.917-50.606 24.709l-105.999 302.894c-40.131 9.8-75.489 31.785-102.328 61.609-32.123 35.615-51.722 82.898-51.722 134.19 0 55.296 22.666 105.999 59.218 142.459l0.174 0.087 0.85 0.686c36.47 36.040 86.569 58.537 141.527 58.537h247.859v0.338c0 14.664 8.182 27.689 20.024 34.509l333.829 222.561c18.401 12.099 43.116 6.979 55.378-11.336 4.521-6.82 6.564-14.316 6.564-21.811v-271.37c27.433-7.076 51.968-21.135 71.572-40.392l1.613-1.28c28.882-28.979 46.689-69.018 46.689-112.983 0-44.14-17.812-84.091-46.689-112.983l-0.169 0.092v-0.092c-19.855-19.85-44.908-34.499-73.021-41.661v-271.299c0-22.231-17.725-39.788-39.967-39.788-9.098 0-17.628 2.903-24.351 8.1v0zM501.412 355.855v0 243.768h-279.808c-33.485 0-64.072-13.629-86.139-35.784-22.072-22.067-35.702-52.485-35.702-86.057 0-31.181 11.843-59.643 30.93-81.116 19.681-21.975 46.945-36.639 77.445-40.125 14.828-1.623 28.119-11.592 33.398-26.419l100.46-287.391 37.151 13.041 36.895 13.036-81.034 230.815c-2.217 5.279-3.323 10.568-3.323 16.451 0 21.893 17.976 39.788 39.88 39.788l129.848-0.005zM549.458 638.484v0-341.499l255.964-170.665v702.925l-255.964-170.665v-20.096zM885.258 582.164v0-208.84c14.822 5.535 28.201 14.403 39.363 25.221v0.169c20.014 20.28 32.543 48.138 32.543 79.068 0 30.761-12.529 58.788-32.543 79.068l-1.275 1.024c-10.65 10.481-23.603 18.749-38.088 24.289v0z" />
<glyph unicode="&#xe908;" glyph-name="gou" d="M982.989 561.838c-44.856-27.423-94.633-49.203-133.714-83.261-152.453-132.844-274.734-291.543-381.138-462.838-5.514-8.878-11.049-17.761-18.171-29.199-114.857 135.567-234.604 261.386-400.374 339.425 86.492 53.868 169.861 105.8 257.075 160.118 42.184-83.313 83.43-164.787 126.73-250.317 127.58 266.107 266.998 517.75 521.533 678.922 3.241-1.393 6.477-2.796 9.708-4.188-3.948-41.421-7.736-82.847-11.863-124.252-6.41-64.256-4.326-127.811 16.358-189.65 3.308-9.861 9.175-18.852 13.855-28.247 0-2.166 0-4.342 0-6.513z" />
<glyph unicode="&#xe909;" glyph-name="project-360" d="M857.771 537.387c-18.731 45.696-46.805 87.040-80.896 121.173-13.099 13.099-33.707 13.099-46.763 0-12.928-12.843-12.928-33.707 0-46.549 28.416-28.501 51.328-62.208 67.413-99.925 14.549-35.84 22.741-75.605 22.741-118.016 0-41.771-8.192-82.005-22.741-117.845-16.085-37.76-38.997-71.893-67.413-100.352-55.68-55.68-132.779-89.984-217.899-89.984-42.155 0-81.792 8.235-118.059 23.253-37.291 15.531-71.424 38.485-99.883 66.731-28.715 28.459-51.84 62.592-67.413 100.352-14.805 35.84-22.784 76.075-22.784 117.845 0 42.368 8.021 82.176 22.784 118.016 15.573 37.717 38.699 71.424 67.413 99.925 48.043 48.896 112.555 81.109 184.619 88.917v-73.131c0-8.875 3.371-16.896 9.856-24.021 13.056-12.629 33.536-12.629 46.592 0l53.973 54.571 53.973 53.76c12.928 13.056 12.928 33.749 0 46.763l-107.989 107.691c-5.931 5.675-14.336 9.685-23.168 9.685-18.133 0-33.28-14.763-33.28-32.683v-76.928c-89.813-7.552-171.136-47.573-231.424-108.075-34.56-34.133-62.379-75.477-81.109-121.173-18.347-44.459-28.459-92.715-28.459-143.317 0-50.347 10.112-98.816 28.459-142.933 18.731-46.080 46.592-87.467 81.109-121.771 34.517-34.347 75.861-62.165 121.387-81.152h0.256c44.032-18.091 92.501-28.416 143.104-28.416 103.253 0 196.821 42.155 264.661 109.568 34.176 34.347 62.165 75.648 80.896 121.771 18.603 44.032 28.416 92.587 28.416 142.933 0.043 50.603-9.856 98.859-28.373 143.317zM359.211 301.099c-5.717-2.987-11.605-4.523-17.749-4.523-10.709 0-19.029 3.371-24.917 10.027-5.931 6.656-11.477 16.896-16.597 30.635-0.811 2.304-2.475 4.309-5.035 5.931s-5.291 2.517-8.021 2.517c-5.547 0-10.197-1.749-13.909-5.333-3.712-3.499-5.547-8.107-5.547-13.824 0-4.48 1.536-10.155 4.651-16.939 3.072-6.869 7.68-13.44 13.781-19.883 6.144-6.315 13.867-11.733 23.168-15.957 9.429-4.224 20.096-6.357 31.957-6.357 11.691 0 22.4 1.835 32.043 5.589 9.685 3.669 18.048 8.832 25.088 15.445 7.040 6.528 12.373 14.037 15.957 22.485 3.627 8.363 5.419 17.109 5.419 26.112 0 7.595-1.323 14.592-4.011 20.992-2.645 6.528-6.656 12.501-11.947 17.835s-11.819 10.069-19.541 14.251c8.064 6.741 14.251 13.653 18.517 20.736s6.443 15.616 6.443 25.515c0 7.509-1.451 14.592-4.437 21.12s-7.381 12.245-13.269 17.195c-5.803 4.992-12.672 8.747-20.651 11.435-7.851 2.603-16.683 3.925-26.283 3.925-11.008 0-20.992-1.579-29.867-4.693-8.917-3.072-16.384-7.253-22.4-12.373-5.931-5.163-10.539-10.624-13.653-16.299-3.115-5.717-4.651-11.179-4.651-16.299 0-5.376 1.621-9.643 4.949-12.885s6.997-4.821 10.923-4.821c3.371 0 6.357 0.64 8.96 1.792 2.56 1.195 4.352 2.816 5.333 4.907 1.707 3.883 3.584 7.936 5.589 12.331s4.139 7.979 6.443 10.752c2.304 2.731 5.376 4.949 9.301 6.656 3.925 1.664 8.875 2.517 14.976 2.517 8.917 0 16.043-2.731 21.248-8.192 5.248-5.504 7.893-12.117 7.893-19.712 0-10.027-3.285-17.749-9.856-23.040-6.613-5.333-14.421-8.021-23.595-8.021v-0.085h-6.059c-7.040 0-12.373-1.579-15.915-4.437-3.584-2.944-5.333-6.784-5.333-11.563 0-4.907 1.451-8.661 4.437-11.392 2.944-2.773 7.168-4.096 12.629-4.096 1.195 0 3.797 0.213 8.021 0.597 4.181 0.469 7.211 0.64 9.216 0.64 11.307 0 20.139-3.328 26.453-9.856 6.4-6.656 9.557-15.701 9.557-27.307 0-7.851-1.835-14.72-5.632-20.651-3.669-5.931-8.405-10.411-14.080-13.397zM502.443 457.429c5.163 2.987 10.411 4.48 15.659 4.48 6.528 0 12.331-1.749 17.237-5.376 4.949-3.669 8.576-8.448 10.923-14.421 1.621-4.651 4.267-8.277 7.851-10.923 3.584-2.603 7.424-3.925 11.605-3.925 4.693 0 8.619 1.664 11.691 4.992 3.072 3.285 4.565 6.997 4.565 11.093 0 6.741-2.475 13.739-7.381 21.12-4.864 7.296-12.203 13.483-21.888 18.389-9.6 4.992-20.821 7.467-33.493 7.467-13.141 0-24.96-2.475-35.243-7.467-10.325-4.949-19.072-12.245-26.325-22.016-7.211-9.685-12.757-21.931-16.64-36.651-3.925-14.763-5.845-31.531-5.845-50.261 0-22.997 3.243-42.496 9.643-58.325 6.357-16 15.616-27.989 27.733-36.139 12.032-8.107 26.411-12.203 43.093-12.203 14.507 0 27.435 3.243 38.912 9.643 11.435 6.357 20.352 15.275 26.752 26.709s9.6 24.064 9.6 38.059c0 9.643-1.579 18.816-4.907 27.605-3.243 8.832-7.893 16.555-13.824 22.997-6.016 6.571-13.013 11.563-20.949 15.061s-16.725 5.291-26.112 5.291c-9.813 0-18.645-1.92-26.624-5.803-7.936-3.968-15.275-9.856-22.059-17.877 1.323 27.008 5.589 45.739 12.843 56.235 3.584 5.12 7.979 9.216 13.184 12.245zM485.163 365.269c3.413 6.229 7.893 10.923 13.483 14.251 5.632 3.157 11.477 4.821 17.621 4.821 6.443 0 12.373-1.707 17.749-5.163 5.333-3.328 9.515-8.32 12.672-14.848 2.987-6.485 4.523-14.251 4.523-23.296 0-13.312-3.243-24.021-9.771-32.171-6.485-8.192-14.848-12.288-24.875-12.288-10.453 0-19.2 4.48-26.155 13.397-6.912 8.917-10.368 20.096-10.368 33.408 0 8.448 1.707 15.659 5.12 21.888zM614.187 446.805c-3.328-8.704-5.845-18.987-7.424-30.976-1.579-11.947-2.432-25.429-2.432-40.405 0-11.648 0.768-22.4 2.176-32.341 1.408-9.984 3.755-19.115 6.741-27.349 6.101-15.061 15.104-26.837 27.008-35.413 11.904-8.491 25.429-12.757 40.533-12.757 13.141 0 24.96 3.243 35.669 9.515 10.752 6.315 19.413 15.403 26.112 27.093 5.419 9.6 9.088 20.181 11.051 31.787 2.005 11.691 2.944 25.728 2.944 41.941 0 29.995-3.755 53.12-11.264 69.419-4.437 9.429-9.728 17.323-16 23.723-6.315 6.4-13.653 11.264-21.973 14.592-8.235 3.328-17.493 5.035-27.733 5.035-15.488 0-28.757-3.755-39.893-11.264-11.136-7.424-19.669-18.347-25.515-32.597zM652.843 440.661c5.12 13.227 14.208 19.797 27.349 19.797 9.088 0 16.256-2.944 21.419-8.875 5.163-5.845 8.832-14.592 11.051-26.155 2.133-11.52 3.2-26.325 3.2-44.544 0-19.115-1.024-34.56-3.115-46.379-2.133-11.819-5.717-20.907-10.837-27.221-5.163-6.357-12.288-9.557-21.461-9.557-8.789 0-15.787 3.029-20.949 9.173-5.12 6.144-8.789 15.104-11.051 27.008-2.176 11.904-3.2 27.136-3.2 45.739-0.043 27.52 2.517 47.829 7.595 61.013z" />
<glyph unicode="&#xe90a;" glyph-name="project-psy" d="M936.661 599.595c-2.645 28.117-27.648 48.853-55.851 46.165l-13.056-1.237v53.632c0 30.592-24.875 55.424-55.467 55.424h-31.275v92.459l-623.445 57.6v-150.059h-61.355c-30.549 0-55.424-24.832-55.424-55.424v-531.328c0-30.592 24.875-55.467 55.424-55.467h118.955l6.869-72.619c2.688-28.117 27.733-48.853 55.851-46.123l658.859 62.293c28.203 2.56 48.896 27.691 46.208 55.765l-46.293 488.917zM199.339 856.875l540.672-53.248v-50.048h-540.672v103.296zM104.021 155.136c-10.155 0-18.475 8.277-18.475 18.517v517.291c0 10.155 8.32 18.432 18.475 18.432h701.483c10.197 0 18.517-8.277 18.517-18.432v-517.333c0-10.197-8.277-18.517-18.517-18.517h-701.483zM933.547 88.96l-658.901-62.336c-9.301-0.981-17.707 6.059-18.56 15.36l-6.571 69.376h562.816c30.592 0 55.467 24.875 55.467 55.467v437.717l16.299 1.579c9.387 0.853 17.664-6.059 18.603-15.403l46.251-483.243c0.853-9.259-6.016-17.621-15.403-18.517zM206.933 575.403l36.992-8.363c-7.765-42.837-17.835-82.517-30.251-119.040l-35.925 13.227c10.283 32.768 19.968 70.827 29.184 114.176zM359.424 482.816c16.213-6.699 29.781-11.819 40.747-15.403-1.237-8.533-3.584-19.968-6.912-34.347-3.413-14.293-7.381-23.595-11.947-27.861-4.565-4.224-10.325-7.381-17.237-9.387-6.869-2.133-15.104-3.157-24.875-3.157h-44.245c-30.251 0-45.397 15.275-45.397 45.867v155.477h39.936v-143.061c0-15.445 8.021-23.211 24.064-23.211h13.739c8.107 0 14.379 1.365 18.901 4.096 4.437 2.773 7.296 6.741 8.363 12.032s2.731 18.261 4.864 38.955zM309.248 653.653c15.616-19.797 32.427-43.179 50.432-70.187l-35.883-22.101c-15.275 27.52-30.507 51.925-45.611 73.173l31.061 19.115zM409.088 571.093c14.379-29.483 27.008-59.136 37.803-88.832l-37.291-15.403c-10.069 29.355-22.229 59.221-36.437 89.643l35.925 14.592zM461.184 400.512l-7.552 38.315 32.128 7.296v66.389h-25.899v33.451h25.899v56.704h-27.008v33.963h88.533v-33.963h-27.008v-56.704h25.131v-33.451h-25.131v-57.643c9.685 2.603 18.987 5.248 28.117 7.979-0.725-12.757-0.853-25.131-0.299-36.992h66.859v23.467h-61.483v30.763h61.483v19.456h-60.117v140.075h154.923v-140.075h-60.203v-19.456h61.568v-30.763h-61.568v-23.467h73.429v-30.763h-185.131v28.459c-23.765-6.571-49.323-14.208-76.672-23.040zM588.544 583.765h26.411v25.643h-26.411v-25.643zM588.544 529.792h26.411v25.899h-26.411v-25.899zM676.053 609.408h-26.496v-25.685h26.496v25.685zM676.053 529.792v25.899h-26.496v-25.899h26.496zM148.011 333.611h605.355v-45.355h-605.355v45.355zM148.011 249.216h605.355v-45.355h-605.355v45.355z" />
<glyph unicode="&#xe90b;" glyph-name="ellipsis" horiz-adv-x="1147" d="M304.892 448c0-52.054-42.196-94.25-94.25-94.25s-94.25 42.196-94.25 94.25c0 52.054 42.196 94.25 94.25 94.25s94.25-42.196 94.25-94.25zM667.751 448c0-52.054-42.196-94.25-94.25-94.25s-94.25 42.196-94.25 94.25c0 52.054 42.196 94.25 94.25 94.25s94.25-42.196 94.25-94.25zM1030.608 448c0-52.054-42.196-94.25-94.25-94.25s-94.25 42.196-94.25 94.25c0 52.054 42.196 94.25 94.25 94.25s94.25-42.196 94.25-94.25z" />
<glyph unicode="&#xe90c;" glyph-name="resolve" horiz-adv-x="1147" d="M389.996 192.146c-1.237 0-2.473 0-3.583 0.126-16.828 0.979-32.442 8.556-43.323 21.418l-263.327 306.054c-22.42 25.872-19.328 64.993 6.571 87.287 26.129 22.289 65.124 19.328 87.287-6.571l221.732-257.632 581.507 532.737c25.023 23.038 64.506 21.418 87.544-3.84 23.273-25.254 21.287-64.506-3.84-87.544l-628.684-575.69c-11.39-10.515-26.364-16.341-41.852-16.341z" />
<glyph unicode="&#xe90f;" glyph-name="add" d="M992 576h-352v352c0 17.664-14.336 32-32 32h-192c-17.664 0-32-14.336-32-32v-352h-352c-17.664 0-32-14.336-32-32v-192c0-17.664 14.336-32 32-32h352v-352c0-17.664 14.336-32 32-32h192c17.664 0 32 14.336 32 32v352h352c17.664 0 32 14.336 32 32v192c0 17.664-14.336 32-32 32z" />
<glyph unicode="&#xe910;" glyph-name="people" horiz-adv-x="882" d="M441.098 344.044c-168.755 0-306.017 138.117-306.017 308.019 0.005 169.82 137.303 307.937 306.017 307.937 168.709 0 306.012-138.117 306.012-308.019s-137.257-307.937-306.012-307.937zM441.098 888.074c-129.311 0-234.496-105.923-234.496-236.052 0-130.171 105.185-236.052 234.496-236.052s234.496 105.882 234.496 236.052c0.082 130.13-105.185 236.052-234.496 236.052zM846.438-64c-19.707 0-35.758 16.097-35.758 36.004 0 205.123-165.765 372.040-369.582 372.040-203.858 0-369.623-166.917-369.623-372.040 0.041-19.825-15.974-36.004-35.717-36.004s-35.758 16.097-35.758 36.004c0 244.813 197.919 443.965 441.098 443.965 243.22 0 441.057-199.148 441.057-443.965 0.082-19.907-15.974-36.004-35.717-36.004zM356.413 360.095l44.524-60.908-66.089-210.755 106.25-115.528 106.25 115.528-66.089 210.755 47.78 60.908z" />
<glyph unicode="&#xe911;" glyph-name="folder" d="M903.122 731.551v67.574c0 22.088-17.91 39.997-40.003 39.997h-431.124l-26.665 35.564h-280.008c-22.083 0-40.003-17.92-40.003-40.003v-773.366c0-22.077 17.92-39.997 40.003-39.997h773.361c22.083 0 40.003 17.92 40.003 39.997v631.132c-0.005 20.495-15.662 36.813-35.564 39.101zM867.569 92.431h-711.142v711.132h213.34l106.67-142.223h391.132v-568.909zM867.569 732.452h-355.569l-53.335 71.112h408.904v-71.112z" />
<glyph unicode="&#xe912;" glyph-name="treest" d="M915.656 227.825h-36.695v220.175c0 20.28-16.415 36.695-36.695 36.695h-293.571v183.48h36.695c20.285 0 36.7 16.415 36.7 36.695v146.785c0 20.28-16.415 36.695-36.7 36.695h-146.78c-20.28 0-36.695-16.415-36.695-36.695v-146.785c0-20.28 16.415-36.695 36.695-36.695h36.695v-183.48h-293.571c-20.28 0-36.695-16.415-36.695-36.695v-220.175h-36.695c-20.28 0-36.695-16.415-36.695-36.7v-146.78c0-20.285 16.415-36.7 36.695-36.7h146.785c20.28 0 36.695 16.415 36.695 36.7v146.78c0 20.285-16.415 36.7-36.695 36.7h-36.695v183.48h256.876v-183.48h-36.695c-20.28 0-36.695-16.415-36.695-36.7v-146.78c0-20.285 16.415-36.7 36.695-36.7h146.78c20.285 0 36.7 16.415 36.7 36.7v146.78c0 20.285-16.415 36.7-36.7 36.7h-36.695v183.48h256.876v-183.48h-36.695c-20.285 0-36.7-16.415-36.7-36.7v-146.78c0-20.285 16.415-36.7 36.7-36.7h146.78c20.285 0 36.7 16.415 36.7 36.7v146.78c-0.005 20.285-16.42 36.7-36.705 36.7zM438.61 704.87v146.785h146.78v-146.785h-146.78zM255.13 191.124v-146.78h-146.785v146.78h146.785zM585.39 191.124v-146.78h-146.78v146.78h146.78zM915.656 44.344h-146.78v146.78h146.78v-146.78z" />
<glyph unicode="&#xe913;" glyph-name="peoples" d="M546.55 503.895c-7.475-25.897-19.907-49.065-35.226-67.907-1.521-103.711 32.159-121.313 182.825-151.864 31.427-6.369 69.125-27.873 69.125-65.085v-16.712l-17.526-178.002c-213.74 0-427.479 0-641.213 0l-17.51 178.002v16.712c0 37.228 37.673 58.716 69.115 65.085 149.77 30.372 195.205 42.399 182.825 150.671-15.892 19.2-28.774 43.028-36.378 69.734l-9.457-1.469c-10.685-1.659-20.787 5.719-22.446 16.41l-9.267 59.592c-1.664 10.68 5.719 20.782 16.404 22.446l6.712 1.039c-2.985 9.339-4.618 19.282-4.618 29.588v21.944c0 53.688 43.919 97.597 97.597 97.597h11.628c-0.113 1.843 0.097 3.594 0.717 5.233 6.006 15.831 46.029 15.329 89.4-1.096 9.216-3.497 17.843-7.434 25.656-11.612 35.272-14.746 60.227-49.654 60.227-90.122v-21.944c0-10.307-1.613-20.25-4.613-29.588l6.712-1.039c10.685-1.664 18.063-11.766 16.42-22.446l-9.267-59.592c-1.659-10.685-11.756-18.068-22.461-16.41l-5.381 0.835zM558.070 450.156c-17.080-29.665-28.472-64.21 4.49-90.025 21.407-16.748 62.669-30.479 130.985-44.334 43.546-8.852 95.995-45.322 95.995-94.285v-16.727l-0.241-2.427-2.826-28.662h130.309c14.766 59.873 22.083 139.817 1.536 189.819-3.594 50.806-80.773 59.766-138.604 79.304-33.485 11.919-73.774 22.902-68.664 91.94 69.545 12.483 104.1 48.876 99.021 47.606-28.18 13.763-21.617 60.314-17.669 105.431l0.543 3.476c0.22 1.454 0.256 2.893 0.108 4.296 0.241 3.154 0.466 6.292 0.655 9.4 1.741 28.902-4.060 53.33-12.058 70.953-15.063 33.208-52.291 74.409-87.741 62.577l-9.518-3.169c2.412 34.058-115.538 43.156-159.964-54.764-2.54-5.617-4.874-11.93-6.804-18.847 22.221-9.631 41.134-25.559 54.461-45.491 7.511-11.238 13.261-23.716 16.84-37.012 8.146-30.218-4.408-53.76 12.759-77.251 7.429-10.179 11.008-23.24 8.914-36.705l-8.96-57.656c-4.797-30.894-28.503-31.293-43.566-57.446v0z" />
<glyph unicode="&#xe916;" glyph-name="report2" d="M685.909 866.005c19.584 0 37.419-7.936 50.432-20.949 12.928-13.013 20.992-30.805 20.992-50.475v-549.376c0-19.755-8.064-37.803-20.992-50.261-13.013-12.757-30.848-20.907-50.432-20.907h-462.891c-19.243 0-36.779 7.68-49.92 20.437l-0.341 0.512h-0.171c-12.928 13.141-20.907 30.507-20.907 50.261v401.621c0 6.827 2.859 13.611 7.637 18.901l192.64 192.512c4.907 4.779 11.435 7.765 18.901 7.765l315.051-0.043zM204.971 630.827v-385.621c0-4.736 1.877-9.557 5.077-12.587v0c3.413-3.755 8.192-5.461 12.971-5.461h462.891c5.163 0 9.685 1.707 12.928 5.461v0c2.901 3.029 5.248 7.851 5.248 12.587v549.376c0 5.12-2.347 9.728-5.248 12.843-3.413 3.072-7.765 5.333-12.928 5.333h-299.221v-121.344c0-15.829-6.485-30.976-17.024-41.771l-0.512-0.896c-11.264-10.923-26.24-17.92-42.923-17.92h-121.259zM834.048 752.384c-13.013 13.056-30.848 20.949-50.432 20.949h-13.909v-53.248h13.909c5.163 0 9.515-2.304 12.928-5.333 2.901-3.157 5.248-7.765 5.248-12.843v-549.333c0-4.736-2.347-9.6-5.248-12.587-3.243-3.755-7.765-5.504-12.928-5.504h-462.891c-4.736 0-9.515 1.749-12.928 5.504-3.243 2.987-5.077 7.851-5.077 12.587v0.085h-53.333v-0.085c0-19.755 8.021-37.163 20.907-50.261h0.171l0.341-0.512c13.184-12.757 30.677-20.437 49.92-20.437h462.933c19.584 0 37.419 8.149 50.432 20.907 12.928 12.416 20.992 30.507 20.992 50.261v549.376c-0.043 19.669-8.107 37.461-21.035 50.475z" />
<glyph unicode="&#xe918;" glyph-name="qq" d="M941.013 326.997c-6.827 31.872-19.584 61.44-34.005 90.368-12.587 25.088-27.563 48.725-44.245 71.339-2.432 3.371-2.816 6.229-1.109 10.155 6.997 16.128 8.107 33.024 6.144 50.304-2.005 16-8.747 30.123-16.512 44.032-4.224 7.68-10.155 14.421-11.264 23.765-3.499 31.104-9.941 61.611-19.413 91.52-10.539 32.768-26.069 62.933-47.104 90.027-25.173 32.469-57.771 55.467-94.976 72.192-43.477 19.541-89.259 29.995-137.045 31.787-40.149 1.536-79.829-1.963-118.613-13.141-29.355-8.448-57.472-19.755-82.219-38.016-28.715-21.163-52.224-47.659-73.045-76.501-13.44-18.688-25.515-38.357-34.261-59.776-12.501-30.635-21.504-62.037-20.907-95.616 0-1.621-0.896-3.456-1.792-4.821-7.125-10.112-11.477-21.248-12.416-33.536-0.64-8.491-3.243-16.043-7.467-23.552-4.437-7.723-7.595-16.341-9.941-24.96-3.627-13.056-1.92-26.197 2.389-38.613-7.68-6.144-15.104-11.947-22.315-17.963-34.987-29.056-62.123-64.128-81.28-105.301-10.027-21.589-17.365-44.075-20.693-67.84-1.323-9.472-2.645-18.901-3.925-28.416 0-5.931 0-11.819 0-17.749 0.597-3.84 1.323-7.808 1.792-11.563 1.408-11.733 2.944-23.424 8.277-34.261 4.352-8.661 8.32-10.411 17.835-8.021 12.672 3.371 22.997 10.539 32.085 19.541 11.904 11.861 21.504 25.387 27.563 41.216 0.427 1.237 1.152 2.517 2.005 3.371 1.749 1.835 3.328 1.835 4.224-0.896 1.195-3.755 2.645-7.595 3.669-11.349 6.443-23.339 17.323-44.587 30.805-64.384 14.677-21.803 34.005-39.083 54.784-54.869 1.365-1.067 2.944-1.792 4.523-2.688-1.579-1.451-1.835-1.707-2.091-1.792-2.475-0.384-4.907-0.725-7.339-1.024-16.469-1.792-32.469-5.077-46.592-14.080-12.245-7.851-20.651-18.389-22.187-33.323-0.683-7.083-1.237-14.080-1.621-21.163-0.384-7.851 2.389-14.677 6.613-21.077 8.405-12.757 21.077-19.541 34.389-25.344 21.675-9.6 44.715-13.995 68.011-17.024 29.056-3.883 58.197-5.717 87.467-4.523 18.347 0.853 36.907 2.091 54.997 5.248 30.037 5.205 57.088 18.347 82.517 35.157 2.005 1.28 4.821 2.091 7.296 2.091 8.704-0.043 17.365-0.256 26.027-1.152 7.424-0.811 14.933-2.005 22.101-4.096 22.571-6.4 44.885-14.421 67.797-19.84 28.544-6.827 57.856-9.685 87.339-10.453 39.723-0.939 78.805 2.389 116.224 16.384 17.28 6.4 33.493 15.147 43.733 31.488 6.912 11.093 7.765 22.997 1.451 34.859-6.997 13.355-18.219 22.699-30.976 30.123-14.592 8.491-29.824 15.915-44.928 23.979-1.237 0.725-2.517 1.707-3.243 2.304 8.405 9.984 16.896 19.328 24.32 29.355 14.592 19.755 25.173 41.6 33.28 64.683 2.261 6.229 5.12 12.203 7.979 18.261 0.597 1.323 2.091 2.219 3.243 3.328 0.896-1.152 2.091-2.304 2.816-3.584 5.931-10.411 11.392-20.864 17.493-31.147 5.248-8.96 11.691-16.896 20.267-23.211 5.205-3.883 11.136-5.333 16.469-1.579 5.205 3.627 10.112 8.021 13.952 13.227 11.904 15.829 15.317 34.688 16.768 53.76 1.451 21.461-0.469 42.923-5.12 64.384z" />
<glyph unicode="&#xe919;" glyph-name="password" d="M259.676 564.023h7.421v108.151c0 72.13 29.635 138.058 77.124 185.41l2.384 2.068c47.623 46.545 112.603 75.413 183.656 75.413 72.13 0 137.653-29.635 185.501-77.484 47.489-47.309 76.808-113.234 76.808-185.41v-108.151h7.689c27.476 0 52.794-11.109 70.334-29.59 18.259-17.717 29.364-43.125 29.364-70.918v-365.469c0-27.747-11.109-52.614-29.364-71.098l-2.878-2.384c-17.942-16.91-41.642-26.758-67.456-26.758h-540.58c-27.522 0-52.209 11.693-70.288 29.096-18.259 18.484-29.635 43.351-29.635 71.098v365.469c0 27.79 11.331 53.199 29.635 70.918v0c18.079 18.527 42.766 29.635 70.288 29.635v0zM528.998 267.042v0h2.384c13.49 0.539 25.229 6.115 33.996 14.571 8.813 9.489 14.659 21.63 14.659 35.93 0 13.49-5.847 26.173-14.659 35.165-9.175 9.218-21.675 15.064-35.165 15.064-14.032 0-26.441-5.847-35.707-15.064-9.129-8.995-14.659-21.675-14.659-35.165 0-14.254 5.53-26.441 14.659-35.93 8.77-8.499 20.506-14.075 34.492-14.571v0zM554.541 220.723v0-51.311c0-13.49-10.838-24.599-24.328-24.599-14.032 0-25.272 11.109-25.272 24.599v51.311c-17.583 4.498-33.457 14.032-45.781 26.173-17.808 17.988-29.322 43.351-29.322 70.602 0 26.983 11.514 52.346 29.322 70.288 18.301 18.301 43.53 29.364 71.052 29.364 27.61 0 51.984-11.063 70.422-29.364 17.854-17.942 29.364-43.351 29.364-70.288 0-27.251-11.514-52.614-29.364-70.602-12.232-12.141-28.061-21.675-46.094-26.173v0zM349.749 564.023v0h360.073v108.151c0 49.465-20.281 94.168-52.794 127.22-32.693 31.974-77.484 52.568-126.769 52.568-48.658 0-93.221-18.752-125.512-50.772l-1.888-1.8c-32.872-33.052-53.11-77.797-53.11-127.22v-108.151zM800.211 481.503v0h-540.537c-4.632 0-8.679-2.113-12.278-5.262v0c-2.878-2.652-4.677-7.421-4.677-12.726v-365.469c0-4.227 1.754-9.218 4.677-11.873 3.596-3.417 8.185-5.576 12.278-5.576h540.58c4.001 0 7.555 1.842 11.151 3.959l1.124 1.62c2.923 2.652 5.308 7.643 5.308 11.873v365.469c0 5.037-2.384 10.073-5.308 12.726-3.554 3.103-7.689 5.262-12.321 5.262v0z" />
<glyph unicode="&#xe91a;" glyph-name="report" d="M765.611 39.467h-509.355c-84.437 0-152.832 70.485-152.832 154.88v662.144h605.099v-48.896h114.176v-48.896h97.792v-564.395c0-84.352-70.443-154.837-154.88-154.837zM643.456 791.381h-474.923v-613.419c0-28.117 26.88-57.088 54.997-57.088h419.925v670.507zM869.547 710.144h-46.848v-490.325c0-14.080-17.536-25.472-31.616-25.472-14.037 0-33.621 11.392-33.621 25.472v538.88h-48.896v-563.456c0-42.155 40.32-76.373 82.56-76.373s78.464 34.219 78.464 76.373v514.901zM250.112 251.392h165.077v-48.896h-165.077v48.896zM250.112 351.189h211.925v-50.901h-211.925v50.901zM561.877 300.288h-50.944v50.901h50.944v-50.901zM462.037 448.981h99.84v-50.901h-99.84v50.901zM250.112 707.755h311.765v-209.877h-311.765v209.877zM413.141 398.080h-163.029v50.901h163.029v-50.901z" />
<glyph unicode="&#xe91b;" glyph-name="newspaper" d="M896 704v128h-896v-704c0-35.346 28.654-64 64-64h864c53.022 0 96 42.978 96 96v544h-128zM832 128h-768v640h768v-640zM128 640h640v-64h-640zM512 512h256v-64h-256zM512 384h256v-64h-256zM512 256h192v-64h-192zM128 512h320v-320h-320z" />
<glyph unicode="&#xe91d;" glyph-name="tel" d="M267.52 282.667c-137.045 195.712-178.347 383.957-109.568 435.84 37.035 27.947 47.232 34.133 50.517 34.304l131.541-187.819c-44.501-39.765-35.669-133.931 21.931-216.277 57.643-82.261 143.104-122.752 195.669-94.507l131.328-187.563c-2.005-3.072-12.245-11.008-49.323-36.011-72.533-48.896-235.093 56.363-372.096 252.032v0zM704.853 92.075l-126.72 180.907c-7.253 10.411-4.693 24.832 5.675 32.085l62.805 43.989c10.368 7.253 24.789 4.651 32.085-5.675l126.677-180.907c7.253-10.411 4.693-24.832-5.632-32.085l-62.848-43.989c-10.411-7.253-24.832-4.651-32.043 5.675v0zM364.331 578.347l-126.677 180.907c-7.253 10.368-4.693 24.789 5.632 32.043l62.848 43.989c10.368 7.253 24.789 4.693 32-5.632l126.72-180.949c7.253-10.368 4.693-24.789-5.675-32.043l-62.805-43.989c-10.368-7.253-24.789-4.693-32.043 5.675v0zM600.405 682.112c-19.755-2.944-33.323-21.376-30.421-41.131 2.987-19.755 21.419-33.365 41.173-30.379 6.827 1.024 13.525 0.469 19.84-1.451 12.757-3.84 24.576-12.971 34.133-25.387 10.411-13.611 17.877-30.805 20.693-49.323 2.304-15.061 1.579-30.848-3.029-46.123-5.717-19.115 5.205-39.253 24.32-44.928s39.253 5.205 44.971 24.32c7.851 25.984 9.131 52.437 5.291 77.483-4.693 30.677-17.195 59.435-34.859 82.432-18.603 24.192-43.136 42.453-70.827 50.816-16.341 4.907-33.621 6.4-51.285 3.669v0zM580.523 816.341c-19.584-3.499-32.64-22.229-29.141-41.813s22.229-32.64 41.813-29.141c40.192 7.253 77.824 0.939 110.592-14.933 30.379-14.763 56.704-37.803 77.099-66.048 20.736-28.8 35.371-62.848 41.856-98.944 8.405-46.72 3.285-97.024-19.541-144.043-8.661-18.005-1.109-39.509 16.853-48.171s39.509-1.152 48.171 16.768c29.824 61.397 36.48 127.104 25.515 188.203-8.448 46.891-27.392 91.008-54.272 128.341-27.349 37.845-62.933 68.864-104.235 88.917-45.824 22.229-98.475 31.019-154.709 20.864v0z" />
<glyph unicode="&#xe91e;" glyph-name="pencil2" d="M384 320l128 64 448 448-64 64-448-448-64-128zM289.3 92.902c-31.632 66.728-65.666 100.762-132.396 132.394l99.096 272.792 128 77.912 384 384h-192l-384-384-192-640 640 192 384 384v192l-384-384-77.912-128z" />
<glyph unicode="&#xe923;" glyph-name="username" d="M888.789-0.299c-1.877 0.64-3.797 1.323-5.717 1.835-15.915 4.352-26.709 16.597-27.691 33.024-2.56 40.149-14.933 77.525-34.133 112.384-54.443 98.773-139.392 155.179-249.557 173.568-88.661 14.891-172.672-0.256-249.6-47.275-80.853-49.451-131.968-120.832-151.168-214.187-1.067-5.291-0.853-11.008-0.469-16.427 1.536-20.693-7.339-34.475-26.965-41.387-1.067-0.341-2.005-1.024-2.987-1.579-5.248 0-10.453 0-15.701 0-17.28 5.504-28.032 16.896-31.403 34.859 0 3.499 0 6.997 0 10.496 2.005 10.155 3.84 20.395 6.144 30.507 30.336 134.997 111.275 228.224 236.032 285.099 6.443 2.901 13.056 5.504 20.565 8.661-3.115 2.261-5.163 3.797-7.253 5.248-90.027 63.957-132.907 150.997-124.757 261.205 9.088 122.411 97.835 224.213 217.387 252.032 15.744 3.669 31.872 5.717 47.829 8.533 15.104 0 30.208 0 45.312 0 13.995-2.347 28.203-3.755 41.899-7.211 112.256-28.16 187.52-97.152 215.040-209.792 27.52-112.597-5.589-209.365-93.056-286.464-9.472-8.32-20.096-15.36-30.891-23.552 3.2-1.365 5.803-2.517 8.363-3.584 128.768-54.443 213.504-147.115 246.741-284.416 2.731-11.477 5.248-22.997 7.851-34.517 0-5.803 0-11.605 0-17.408-5.419-16.171-16.896-25.643-33.152-29.653-2.816 0-5.76 0-8.661 0zM510.976 394.581c12.16 1.024 24.405 1.408 36.395 3.371 11.947 1.963 23.979 4.779 35.499 8.533 124.971 40.747 186.197 178.475 131.029 294.528-46.421 97.707-159.019 146.859-266.624 116.48-115.712-32.64-183.168-152.619-149.717-266.368 26.923-91.776 113.237-154.795 213.419-156.544z" />
<glyph unicode="&#xe926;" glyph-name="ellipsis-round" d="M511.997 960c-282.337 0-511.997-229.654-511.997-511.997 0-282.291 229.66-512.003 512.003-512.003 282.296 0 512.003 229.712 512.003 512.003 0 282.343-229.712 511.997-512.009 511.997zM511.997 7.856c-242.712 0-440.135 197.482-440.135 440.141 0 242.712 197.43 440.141 440.135 440.141 242.665 0 440.141-197.43 440.141-440.141 0-242.659-197.47-440.141-440.141-440.141zM290.435 515.371c-37.195 0-67.368-30.126-67.368-67.368 0-37.195 30.173-67.368 67.368-67.368s67.368 30.173 67.368 67.368c0 37.236-30.178 67.368-67.368 67.368zM511.997 515.371c-37.19 0-67.362-30.126-67.362-67.368 0-37.195 30.173-67.368 67.362-67.368 37.195 0 67.368 30.173 67.368 67.368 0 37.236-30.173 67.368-67.368 67.368zM733.57 515.371c-37.19 0-67.368-30.126-67.368-67.368 0-37.195 30.178-67.368 67.368-67.368s67.368 30.173 67.368 67.368c0 37.236-30.178 67.368-67.368 67.368z" />
<glyph unicode="&#xe928;" glyph-name="add1" d="M512-64c-282.752 0-512 229.248-512 512s229.248 512 512 512c282.752 0 512-229.248 512-512s-229.248-512-512-512zM768 512h-192v192h-128v-192h-192v-128h192v-192h128v192h192v128z" />
<glyph unicode="&#xe929;" glyph-name="edit" horiz-adv-x="1036" d="M212.564 136.877l233.343 99.346-143.238 140.927-90.105-240.273zM905.669 686.738l-147.858 152.484-428.572-422.794 153.636-159.414 422.794 429.725zM1027.486 869.128c0 0-39.141 43.322-84.191 76.239-45.050 32.923-79.707 0-79.707 0l-76.233-76.239 154.782-154.206c0 0 65.259 65.841 85.343 88.365s0.006 65.841 0.006 65.841zM862.638 57.033c0-10.689-8.664-19.354-19.354-19.354h-721.663c-10.689 0-19.354 8.664-19.354 19.354v715.95c0 10.689 8.664 19.354 19.354 19.354h458.8l95.563 101.68h-652.634c-12.899 0-23.35-10.458-23.35-23.35v-911.31c0-12.904 10.452-23.356 23.35-23.356h918.205c12.899 0 23.356 10.452 23.356 23.356v650.882l-102.274-94.922v-458.283z" />
<glyph unicode="&#xe92a;" glyph-name="arrow-upper" horiz-adv-x="956" d="M477.836 960l-477.836-477.94 307.288 0.178 0.877-545.819 339.958-0.418v546.258l307.726-0.198z" />
<glyph unicode="&#xe92b;" glyph-name="arrow-donwer" horiz-adv-x="956" d="M477.836-64l-477.836 477.94 307.288-0.178 0.877 545.819 339.958 0.418v-546.258l307.726 0.198z" />
<glyph unicode="&#xe92c;" glyph-name="delete" horiz-adv-x="883" d="M407.778 707.415h73.034v-626.879h-73.034v626.879zM235.822 707.415h73.034v-626.879h-73.034v626.879zM579.705 707.415h73.034v-626.879h-73.034v626.879zM882.496 850.456h-196.267v45.9c0 35.71-32.065 63.65-73.034 63.65h-337.789c-40.969 0-73.034-27.975-73.034-63.65v-45.9h-202.373v-73.034h76.831v-770.176c0-39.298 32.754-71.246 73.034-71.246h588.831c40.279 0 73.034 31.954 73.034 71.246v770.176h70.726v73.034h0.041zM275.407 886.972h337.783v-36.517h-337.783v36.517zM739.432 9.18c0 0-0.181-0.146-0.695-0.146l-588.831-1.788v770.176h588.866l0.66-768.242z" />
<glyph unicode="&#xe92d;" glyph-name="set-card" d="M0 960h365.714v-365.714h-365.714v365.714zM0 301.714h365.714v-365.714h-365.714v365.714zM658.286 960h365.714v-365.714h-365.714v365.714zM658.286 301.714h365.714v-365.714h-365.714v365.714z" />
<glyph unicode="&#xe92f;" glyph-name="set-info" horiz-adv-x="1026" d="M1022.895 308.869c1.468-8.8 1.105-19.433-1.101-31.903-2.2-12.463-5.864-25.116-10.995-37.944-5.132-12.832-11.369-24.379-18.701-34.642-7.332-10.271-15.396-17.602-24.196-22.003-8.795-4.4-16.495-6.599-23.101-6.599-6.594 0-13.927 1.468-21.991 4.404-7.332 2.194-16.501 4.211-27.501 6.044-10.995 1.837-22.181 2.206-33.544 1.104-11.363-1.104-22.732-3.484-34.097-7.148-11.363-3.667-21.086-9.905-29.15-18.7-17.596-18.327-27.865-39.228-30.797-62.692s0.363-45.83 9.901-67.1c7.332-14.664 6.231-29.327-3.301-43.99-4.4-5.87-11.369-11.917-20.901-18.148s-19.981-11.912-31.344-17.049c-11.363-5.132-23.28-9.169-35.75-12.095-12.458-2.938-23.464-4.406-32.991-4.406-6.6 0-12.837 2.569-18.701 7.699-5.868 5.139-9.901 10.633-12.095 16.501h-1.105c-8.064 22.734-21.812 42.346-41.245 58.847-19.427 16.495-41.975 24.744-67.64 24.744-24.928 0-47.476-8.248-67.646-24.744-20.165-16.501-34.276-35.75-42.344-57.746-3.664-8.8-9.169-15.213-16.501-19.249-7.332-4.031-15.396-6.047-24.196-6.047-10.264 0-21.812 1.831-34.645 5.499-12.832 3.67-25.664 8.25-38.496 13.749-12.833 5.501-24.381 11.911-34.651 19.242-10.263 7.332-17.958 14.671-23.096 22.003-3.662 5.132-5.678 11.183-6.047 18.147-0.363 6.963 2.384 16.68 8.253 29.145 8.064 16.87 11.18 36.119 9.342 57.746-1.826 21.632-11.179 41.618-28.049 59.946-10.263 11-22.727 18.148-37.391 21.449s-28.596 4.585-41.797 3.847c-15.396-0.732-31.165-3.664-47.298-8.802-10.264-2.931-20.528-2.193-30.797 2.206-8.064 2.933-15.581 9.712-22.544 20.349-6.969 10.633-13.2 22.365-18.701 35.197-5.499 12.826-9.717 26.028-12.647 39.591-2.932 13.569-3.67 24.75-2.2 33.55 2.2 16.127 9.532 26.396 21.995 30.797 21.996 8.795 41.798 23.28 59.399 43.444 17.596 20.165 26.396 42.713 26.396 67.641 0 25.664-8.8 48.028-26.396 67.092-17.6 19.070-37.402 32.997-59.399 41.798-6.594 2.2-12.095 7.515-16.495 15.948-4.399 8.427-6.599 17.044-6.599 25.845 0 9.526 1.468 20.164 4.4 31.896s6.779 23.103 11.548 34.097c4.769 10.995 10.264 21.080 16.501 30.243 6.233 9.169 13.012 15.949 20.344 20.355 5.868 3.662 11.554 5.125 17.053 4.4 5.495-0.738 11.549-2.206 18.144-4.4 22.001-8.802 44.919-11.554 68.741-8.254 23.833 3.301 44.919 13.748 63.246 31.35 8.8 8.795 15.216 19.616 19.249 32.443 4.031 12.833 6.6 25.48 7.699 37.944 1.101 12.47 1.101 23.833 0 34.103-1.099 10.263-2.016 17.595-2.746 21.995-1.47 4.4-2.753 9.526-3.848 15.396-1.105 5.868-0.553 11 1.648 15.4 4.4 10.264 12.278 19.249 23.643 26.95 11.369 7.701 23.649 14.111 36.849 19.243 13.195 5.136 26.033 8.99 38.497 11.554s22.364 3.847 29.696 3.847c9.532 0 17.049-3.116 22.548-9.353 5.501-6.226 9.349-12.643 11.549-19.249 8.063-19.789 21.264-37.207 39.597-52.24 18.327-15.032 39.966-22.548 64.892-22.548 25.66 0 48.398 7.148 68.189 21.449 19.802 14.301 33.734 32.449 41.803 54.445 2.932 5.868 7.517 11.917 13.742 18.142 6.231 6.237 12.654 9.353 19.249 9.353 10.264 0 21.454-1.468 33.55-4.4s24.012-6.963 35.744-12.101c11.732-5.126 22.548-11.732 32.449-19.795 9.895-8.070 17.781-16.864 23.649-26.396 3.664-5.864 4.763-12.285 3.301-19.249-1.468-6.963-2.938-11.917-4.406-14.849-9.532-21.264-12.464-43.628-8.795-67.092 3.664-23.466 14.301-43.998 31.897-61.593 17.596-17.602 39.228-27.318 64.894-29.15 25.664-1.831 49.492 2.384 71.494 12.654 5.864 3.662 13.012 5.125 21.443 4.4 8.437-0.738 15.585-4.033 21.454-9.901 10.995-10.27 20.711-25.849 29.144-46.75 8.431-20.891 14.111-41.977 17.049-63.241 1.462-12.463-0.548-22.185-6.053-29.148-5.495-6.963-11.179-11.548-17.043-13.742-22.738-8.070-42.166-22.186-58.292-42.35-16.138-20.165-24.202-43.076-24.202-68.746 0-24.928 6.785-46.74 20.348-65.441 13.563-18.695 31.35-32.075 53.345-40.144 5.132-2.931 9.526-5.867 13.195-8.799 8.067-6.602 13.566-15.034 16.498-25.297zM511.45 209.873c32.998 0 64.162 6.237 93.49 18.701 29.334 12.464 54.808 29.694 76.447 51.692 21.627 21.996 38.676 47.482 51.139 76.442 12.464 28.97 18.695 59.952 18.695 92.941 0 33.002-6.231 63.983-18.695 92.943-12.464 28.965-29.513 54.261-51.139 75.894-21.639 21.633-47.113 38.675-76.447 51.145-29.328 12.464-60.492 18.695-93.49 18.695-32.997 0-63.976-6.231-92.941-18.695-28.965-12.47-54.261-29.511-75.894-51.145-21.627-21.633-38.682-46.929-51.139-75.894-12.464-28.96-18.703-59.94-18.703-92.943 0-32.991 6.233-63.972 18.703-92.941 12.457-28.96 29.511-54.445 51.139-76.442 21.633-21.998 46.929-39.228 75.894-51.692s59.945-18.701 92.941-18.701z" />
<glyph unicode="&#xe930;" glyph-name="mail-waiting" horiz-adv-x="1339" d="M1216.985 960h-1135.367c-45.181 0-81.618-36.437-81.618-81.618v-851.166c0-45.179 36.437-81.618 81.618-81.618h568.413c23.317 0 40.81 18.951 40.81 40.81 0 23.323-18.944 40.808-40.81 40.808h-464.931l345.418 383.315 99.11-90.361 20.403-17.277 20.405 17.277 118.055 106.394 71.416-85.987 71.416 65.583-69.956 85.989 357.078 322.1v-259.427c0-23.317 18.944-40.81 40.81-40.81s39.349 17.492 39.349 40.81v323.559c-0.002 45.181-36.439 81.618-81.62 81.618zM81.618 57.825v756.425l376.029-338.125-376.029-418.3zM650.031 432.395l-494.079 445.987h988.157l-494.079-445.987zM693.016 202.175c0 20.124 4.912 33.654 14.733 40.602s25.273 10.42 46.352 10.42c9.584 0 24.673-0.121 45.275-0.359 20.601-0.24 42.52-0.359 65.755-0.359 23.237 0 45.873-0.121 67.913-0.359 22.038-0.24 39.525-0.359 52.461-0.359 18.202-0.479 32.578 1.078 43.117 4.67 10.541 3.596 15.811 11.858 15.811 24.794 0 9.582 0.359 20.958 1.076 34.135 0.719 13.175 1.078 24.554 1.078 34.136 0.479 16.768 5.27 27.427 14.372 31.978 9.104 4.551 20.602 1.078 34.496-10.419 14.372-11.499 31.14-25.152 50.305-40.959 19.163-15.811 39.045-31.982 59.646-48.51 20.602-16.526 40.726-32.814 60.368-48.866 19.643-16.048 37.129-30.060 52.46-42.039 13.895-11.497 20.96-22.396 21.2-32.697 0.242-10.299-6.346-20.96-19.761-31.978-13.895-11.497-30.304-24.673-49.227-39.524-18.926-14.854-38.57-30.183-58.93-45.992-20.36-15.811-40.365-31.501-60.009-47.071-19.642-15.571-37.131-29.343-52.46-41.32-16.768-13.415-30.542-18.444-41.324-15.091-10.78 3.355-15.93 13.653-15.45 30.9v38.088c0 7.186-0.121 14.251-0.359 21.198-0.24 6.946-0.359 13.295-0.359 19.044 0 11.974-3.596 19.522-10.78 22.636-7.186 3.113-17.010 4.672-29.466 4.672-13.893 0-32.099 0.119-54.618 0.358-22.515 0.24-45.992 0.359-70.427 0.359-24.433 0-48.149 0.119-71.144 0.359-22.999 0.238-41.683 0.359-56.055 0.359-6.229 0-12.698 0.598-19.403 1.797-6.707 1.197-12.815 3.473-18.327 6.827-5.51 3.354-9.94 8.264-13.295 14.733-3.354 6.467-5.030 15.21-5.030 26.226 0 12.936-0.117 25.39-0.359 37.369-0.233 11.979-0.112 25.392 0.365 40.242z" />
<glyph unicode="&#xe931;" glyph-name="mail-success" horiz-adv-x="1352" d="M1340.323 318.528l-364.877-370.756c-7.353-8.825-19.124-11.773-29.423-11.773s-20.598 2.947-29.423 11.773l-207.449 207.449c-14.711 16.184-14.711 41.194 0 55.907 14.711 14.709 39.722 14.709 55.907 0l180.966-180.968 338.387 344.274c16.185 16.185 41.196 16.185 55.914 0 16.178-14.711 16.178-41.192 0-55.907zM1271.171 509.792c-22.071 0-41.196 17.658-41.196 41.196v261.882l-360.457-325.149 70.618-86.803-72.092-66.205-72.092 86.803-119.172-107.401-20.598-17.441-20.596 17.441-100.048 91.216-348.685-386.941h469.331c22.073 0 41.196-17.651 41.196-41.194 0-22.065-17.658-41.196-41.196-41.196h-573.792c-45.609 0-82.39 36.783-82.39 82.39v859.219c0 45.609 36.782 82.39 82.39 82.39h1146.112c45.609 0 82.39-36.782 82.39-82.39v-326.621c0-23.538-17.651-41.196-39.722-41.196zM82.39 49.286l379.588 422.259-379.588 341.325v-763.584zM157.428 877.61l498.755-450.208 498.755 450.208h-997.509z" />
<glyph unicode="&#xe932;" glyph-name="mail-fail" horiz-adv-x="1311" d="M1228.502 960h-1146.112c-45.609 0-82.39-36.782-82.39-82.39v-859.219c0-45.607 36.782-82.39 82.39-82.39h573.792c23.536 0 41.196 19.131 41.196 41.196 0 23.542-19.124 41.194-41.196 41.194h-469.331l348.687 386.941 100.048-91.216 20.596-17.441 20.598 17.441 553.196 498.755v-261.882c0-23.538 19.124-41.196 41.196-41.196s39.722 17.658 39.722 41.196v326.621c-0.002 45.609-36.783 82.39-82.392 82.39zM82.39 49.286v763.584l379.588-341.325-379.588-422.259zM656.183 427.402l-498.755 450.208h997.509l-498.755-450.208zM1122.057 183.155l176.711 174.779c16.052 15.855 16.176 41.728 0.323 57.78-15.86 16.065-41.769 16.191-57.791 0.338l-176.945-174.996-174.247 174.79c-15.982 15.973-41.812 16.058-57.793 0.074-15.977-15.934-16.015-41.8-0.081-57.785l174.012-174.531-175.445-173.556c-16.052-15.902-16.185-41.724-0.325-57.791 8.010-8.093 18.515-12.134 29.059-12.134 10.374 0 20.761 3.96 28.727 11.816l175.686 173.753 177.108-177.69c7.971-8.005 18.434-12.006 28.93-12.006 10.469 0 20.885 4.001 28.854 11.925 15.977 15.941 16.020 41.769 0.079 57.791l-176.862 177.444z" />
<glyph unicode="&#xe933;" glyph-name="msg-waiting" horiz-adv-x="1118" d="M907.98 960h-697.76c-116.067 0-210.22-94.153-210.22-210.22v-403.404c0-116.065 94.153-210.22 210.22-210.22h259.422l325.402-200.158v200.16h112.937c116.067 0 210.22 94.154 210.22 210.22v403.403c0 116.067-94.152 210.22-210.22 210.22zM1028.745 346.378c0-32.206-12.525-62.619-35.336-85.429s-53.112-35.336-85.429-35.336h-202.397v-129.599l-210.667 129.599h-284.696c-32.2 0-62.619 12.525-85.429 35.336s-35.336 53.112-35.336 85.429v403.403c0 32.2 12.525 62.619 35.336 85.429s53.117 35.336 85.429 35.336h697.762c32.206 0 62.619-12.525 85.429-35.336s35.336-53.117 35.336-85.429v-403.403zM278.872 589.158c0 17.215 4.201 28.794 12.604 34.738 8.403 5.945 21.623 8.915 39.658 8.915 8.198 0 21.11-0.102 38.736-0.307s36.38-0.307 56.259-0.307 39.249-0.102 58.104-0.307c18.856-0.205 33.818-0.307 44.885-0.307 15.576-0.411 27.873 0.921 36.892 3.995s13.527 10.145 13.527 21.212c0 8.198 0.307 17.933 0.921 29.205 0.616 11.271 0.923 21.006 0.923 29.204 0.412 14.346 4.51 23.466 12.299 27.36s17.626 0.923 29.514-8.915c12.296-9.837 26.643-21.519 43.038-35.046 16.398-13.526 33.408-27.36 51.034-41.501s34.84-28.077 51.649-41.808c16.806-13.73 31.766-25.721 44.884-35.968 11.888-9.837 17.933-19.162 18.138-27.974 0.203-8.814-5.431-17.933-16.91-27.36-11.886-9.837-25.925-21.11-42.117-33.816-16.19-12.707-32.997-25.823-50.419-39.349s-34.536-26.952-51.34-40.273c-16.807-13.321-31.767-25.106-44.884-35.352-14.349-11.478-26.133-15.782-35.355-12.911-9.223 2.869-13.629 11.683-13.22 26.437v32.586c0 6.148-0.102 12.193-0.308 18.138-0.203 5.942-0.307 11.374-0.307 16.293 0 10.247-3.074 16.702-9.223 19.366s-14.554 3.997-25.209 3.997c-11.888 0-27.464 0.102-46.729 0.307s-39.351 0.308-60.256 0.308c-20.905 0-41.195 0.101-60.87 0.307-19.676 0.203-35.662 0.307-47.959 0.307-5.329 0-10.863 0.512-16.601 1.537s-10.965 2.972-15.68 5.841c-4.713 2.869-8.505 7.071-11.374 12.604s-4.304 13.014-4.304 22.442c0 11.066-0.102 21.722-0.307 31.971-0.206 10.247-0.102 21.724 0.307 34.431z" />
<glyph unicode="&#xe934;" glyph-name="msg-success" horiz-adv-x="1118" d="M907.98 960h-697.76c-116.067 0-210.22-94.153-210.22-210.22v-403.404c0-116.065 94.153-210.22 210.22-210.22h259.422l325.402-200.158v200.16h112.937c116.067 0 210.22 94.154 210.22 210.22v403.403c0 116.067-94.152 210.22-210.22 210.22zM1028.745 346.378c0-32.206-12.525-62.619-35.336-85.429s-53.112-35.336-85.429-35.336h-202.397v-129.599l-210.667 129.599h-284.696c-32.2 0-62.619 12.525-85.429 35.336s-35.336 53.112-35.336 85.429v403.403c0 32.2 12.525 62.619 35.336 85.429s53.117 35.336 85.429 35.336h697.762c32.206 0 62.619-12.525 85.429-35.336s35.336-53.117 35.336-85.429v-403.403zM755.57 757.517l-273.627-273.622-127.135 127.137c-17.447 17.446-45.738 17.446-63.292 0-17.558-17.442-17.446-45.733 0-63.292l190.427-190.426 336.913 336.913c17.446 17.446 17.446 45.733 0 63.291-17.44 17.558-45.845 17.446-63.285 0z" />
<glyph unicode="&#xe935;" glyph-name="msg-fail" horiz-adv-x="1035" d="M840.738 960h-646.086c-107.471 0-194.651-87.18-194.651-194.651v-449.363c0-107.47 87.18-194.651 194.651-194.651h240.21l301.303-185.335v185.336h104.573c107.471 0 194.651 87.182 194.651 194.651v449.362c0 107.471-87.179 194.651-194.651 194.651zM952.559 315.986c0-29.821-11.598-57.982-32.719-79.103s-49.179-32.719-79.103-32.719h-187.408v-120.001l-195.066 120.001h-263.612c-29.815 0-57.982 11.598-79.103 32.719s-32.719 49.179-32.719 79.103v449.362c0 29.815 11.598 57.982 32.719 79.103s49.184 32.719 79.103 32.719h646.088c29.821 0 57.982-11.598 79.103-32.719s32.719-49.184 32.719-79.103v-449.362zM572.648 541.727l181.157 179.181c16.456 16.254 16.584 42.777 0.332 59.235-16.26 16.469-42.821 16.596-59.246 0.344l-181.399-179.4-178.633 179.189c-16.385 16.373-42.864 16.462-59.246 0.075-16.38-16.335-16.418-42.851-0.083-59.239l178.39-178.925-179.859-177.921c-16.459-16.304-16.593-42.778-0.332-59.246 8.212-8.295 18.98-12.438 29.789-12.438 10.634 0 21.283 4.060 29.45 12.112l180.108 178.127 181.566-182.16c8.175-8.207 18.897-12.308 29.661-12.308 10.729 0 21.408 4.101 29.578 12.224 16.379 16.344 16.424 42.822 0.082 59.246l-181.316 181.904z" />
<glyph unicode="&#xe936;" glyph-name="question-full" horiz-adv-x="791" d="M396.253 841.051c-217.076 0-393.667-176.59-393.667-393.667 0-217.072 176.595-393.662 393.667-393.662s393.662 176.59 393.662 393.662-176.591 393.667-393.662 393.667v0zM429.103 195.461c-10.371-9.219-22.36-13.834-35.965-13.834-14.061 0-26.341 4.556-36.829 13.66-10.49 9.107-15.736 21.848-15.736 38.216 0 14.523 5.072 26.744 15.219 36.661 10.143 9.912 22.595 14.871 37.346 14.871 14.525 0 26.748-4.96 36.661-14.871 9.913-9.918 14.866-22.138 14.866-36.661 0-16.138-5.182-28.819-15.562-38.042v0zM558.269 515.696c-7.95-14.757-17.407-27.493-28.358-38.216-10.952-10.718-30.604-28.76-58.963-54.122-7.84-7.145-14.121-13.43-18.846-18.844-4.731-5.417-8.244-10.376-10.549-14.874-2.305-4.497-4.095-8.988-5.362-13.485s-3.169-12.391-5.703-23.69c-4.378-23.977-18.097-35.967-41.153-35.967-11.991 0-22.072 3.92-30.261 11.757-8.184 7.842-12.278 19.483-12.278 34.932 0 19.364 3.001 36.14 8.994 50.316 5.993 14.182 13.948 26.629 23.861 37.351 9.918 10.718 23.284 23.459 40.113 38.216 14.757 12.91 25.422 22.648 31.99 29.218 6.575 6.573 12.104 13.893 16.601 21.963 4.498 8.069 6.743 16.829 6.743 26.285 0 18.44-6.856 34.001-20.576 46.681-13.718 12.682-31.413 19.022-53.084 19.022-25.361 0-44.033-6.4-56.024-19.195-11.989-12.795-22.138-31.642-30.434-56.541-7.836-26.051-22.708-39.076-44.61-39.076-12.91 0-23.807 4.552-32.681 13.66-8.873 9.104-13.312 18.962-13.312 29.565 0 21.902 7.032 44.094 21.093 66.573 14.062 22.479 34.585 41.092 61.555 55.849 26.976 14.759 58.444 22.132 94.414 22.132 33.427 0 62.937-6.166 88.532-18.499 25.59-12.337 45.356-29.108 59.304-50.32 13.952-21.213 20.925-44.269 20.925-69.163 0-19.597-3.977-36.771-11.931-51.528v0z" />
<glyph unicode="&#xe93e;" glyph-name="flag-full" d="M512 960c-282.752 0-512-229.248-512-512s229.248-512 512-512 512 229.248 512 512-229.248 512-512 512zM277.333 106.667h-85.333v640c0 23.595 19.072 42.667 42.667 42.667s42.667-19.072 42.667-42.667v-640zM832 326.101c-31.232-21.035-77.013-48.768-128-48.768s-96.768 15.104-128 36.096c-31.232 20.992-76.971 36.096-128 36.096s-96.725-25.899-128-46.933v397.099c31.275 21.035 77.013 46.976 128 46.976s96.768-15.104 128-36.096c31.232-20.992 77.013-36.096 128-36.096s96.768 27.733 128 48.768v-397.141z" />
<glyph unicode="&#xe941;" glyph-name="close-round" d="M512 960c-282.752 0-512-229.248-512-512s229.248-512 512-512 512 229.248 512 512-229.248 512-512 512zM512 32c-229.76 0-416 186.24-416 416s186.24 416 416 416 416-186.24 416-416-186.24-416-416-416zM672 704l-160-160-160 160-96-96 160-160-160-160 96-96 160 160 160-160 96 96-160 160 160 160-96 96z" />
<glyph unicode="&#xe945;" glyph-name="resolve-full" horiz-adv-x="1026" d="M512.855 960c-283.241 0-512.855-229.228-512.855-511.996 0-282.77 229.614-512.004 512.855-512.004 283.247 0 512.855 229.233 512.855 512.004 0 282.769-229.608 511.996-512.855 511.996zM794.846 570.723l-330.144-337.299c-15.186-15.517-39.826-15.517-55.011 0l-178.826 182.71c-15.197 15.517-15.197 40.684 0 56.207 15.187 15.527 39.827 15.527 55.013 0l151.319-154.595 302.627 309.188c15.197 15.529 39.837 15.529 55.023 0 15.197-15.521 15.197-40.689 0-56.212z" />
<glyph unicode="&#xe947;" glyph-name="resume" horiz-adv-x="819" d="M125.747 295.541h572.943v-48.742h-572.943v48.742zM125.747 123.597h572.943v-48.742h-572.943v48.742zM471.976 639.4h226.743v-48.742h-226.743v48.742zM471.976 811.315h226.743v-48.742h-226.743v48.742zM125.747 467.485h572.943v-48.742h-572.943v48.742zM393.947 573.484c-1.668 1.112-32.3 21.182-77.824 31.042 16.706 21.153 27.443 49.62 32.007 68.579 6.32 26.244 3.862 77.619-21.358 109.656-14.746 18.695-35.343 28.584-59.655 28.584s-44.88-9.918-59.626-28.613c-25.22-31.978-27.677-83.354-21.328-109.627 4.564-18.929 15.272-47.426 32.007-68.579-45.553-9.86-76.186-29.93-77.824-31.042-6.144-4.096-8.923-11.761-6.758-18.842 2.136-7.080 8.689-11.937 16.062-11.937h235.052c7.373 0 13.926 4.857 16.062 11.937s-0.644 14.716-6.817 18.842zM302.958 614.912l-2.75-3.452c-20.012-23.025-46.109-23.025-66.121 0l-2.75 3.452c-23.376 29.637-34.962 68.813-29.959 106.174 4.564 35.957 25.132 73.435 65.799 73.435 40.609 0 61.206-37.537 65.799-73.435 4.944-37.391-6.612-76.537-30.018-106.174zM149.621 559.499c1.17 0.761 29.608 19.427 72.090 28.613l20.831 4.506c7.431-4.886 15.623-7.929 24.605-7.929s17.115 3.043 24.576 7.929l20.86-4.506c42.13-9.128 70.48-27.56 72.060-28.613h-235.023zM2.633 960v-1024h819.2v1024h-819.2zM763.319-9.26h-702.171v906.971h702.171v-906.971z" />
<glyph unicode="&#xe948;" glyph-name="computer" d="M512 960c-282.766 0-512-229.234-512-512 0-282.795 229.234-512 512-512s512 229.234 512 512c0 282.766-229.234 512-512 512zM516.779-7.111c-251.364 0-455.111 203.719-455.111 455.111 0 251.335 203.748 455.111 455.111 455.111s455.111-203.776 455.111-455.111c0-251.392-203.748-455.111-455.111-455.111zM711.111 675.556h-398.222c-15.701 0-28.444-12.715-28.444-28.444v-312.889c0-15.73 12.743-28.444 28.444-28.444h170.667v-28.444h-85.333c-15.701 0-28.444-12.715-28.444-28.444v-28.444h284.444v28.444c0 15.73-12.743 28.444-28.444 28.444h-85.333v28.444h170.667c15.701 0 28.444 12.715 28.444 28.444v312.889c0 15.73-12.743 28.444-28.444 28.444zM682.667 362.667h-341.333v256h341.333v-256z" />
<glyph unicode="&#xe949;" glyph-name="date" horiz-adv-x="1092" d="M0 960v-1024h1092.267v1024h-1092.267zM341.333 4.267h-273.067v204.8h273.067v-204.8zM341.333 277.333h-273.067v204.8h273.067v-204.8zM341.333 550.4h-273.067v204.8h273.067v-204.8zM682.667 4.267h-273.067v204.8h273.067v-204.8zM682.667 277.333h-273.067v204.8h273.067v-204.8zM682.667 550.4h-273.067v204.8h273.067v-204.8zM1024 4.267h-273.067v204.8h273.067v-204.8zM1024 277.333h-273.067v204.8h273.067v-204.8zM1024 550.4h-273.067v204.8h273.067v-204.8z" />
<glyph unicode="&#xe94b;" glyph-name="arrow-down2" horiz-adv-x="931" d="M58.368 516.328c16.198 0 32.303-6.703 43.846-19.828l363.334-415.372 363.427 415.372c21.225 24.204 57.903 26.624 82.106 5.492 24.204-21.225 26.624-57.996 5.492-82.106l-407.18-465.361c-11.078-12.66-26.996-19.921-43.846-19.921s-32.768 7.354-43.846 19.828l-407.18 465.361c-21.225 24.204-18.804 60.881 5.492 82.106 10.985 9.681 24.669 14.429 38.353 14.429v0zM58.368 954.693c16.198 0 32.303-6.889 43.846-19.828l363.334-415.465 363.427 415.465c21.225 24.204 57.903 26.531 82.106 5.492 24.204-21.318 26.624-57.996 5.492-82.199l-407.18-465.455c-11.078-12.567-26.996-19.828-43.846-19.828s-32.768 7.261-43.846 19.735l-407.18 465.455c-21.225 24.204-18.804 60.881 5.492 82.199 10.985 9.681 24.669 14.429 38.353 14.429v0z" />
<glyph unicode="&#xe94c;" glyph-name="arrow-up2" horiz-adv-x="931" d="M872.679 379.718c-16.198 0-32.303 6.703-43.846 19.828l-363.427 415.372-363.427-415.372c-21.225-24.204-57.903-26.624-82.106-5.492s-26.624 57.903-5.492 82.106l407.273 465.455c10.985 12.567 26.996 19.735 43.753 19.735s32.768-7.261 43.846-19.828l407.273-465.361c21.225-24.204 18.804-60.881-5.492-82.106-10.985-9.588-24.669-14.336-38.353-14.336v0zM872.679-58.647c-16.198 0-32.303 6.889-43.846 19.828l-363.427 415.465-363.427-415.465c-21.225-24.204-57.903-26.531-82.106-5.492-24.204 21.318-26.624 57.996-5.492 82.199l407.18 465.455c11.078 12.567 27.089 19.828 43.846 19.828s32.861-7.261 43.846-19.735l407.273-465.455c21.225-24.204 18.804-60.881-5.492-82.199-10.985-9.681-24.669-14.429-38.353-14.429v0z" />
<glyph unicode="&#xe94f;" glyph-name="date2" horiz-adv-x="724" d="M666.816 45.649h-607.798c-30.503 0-55.255 24.751-55.255 55.255v607.797c0 30.528 24.752 55.255 55.255 55.255h55.255v-27.627c0-45.78 37.102-82.882 82.882-82.882 45.748 0 82.882 37.101 82.882 82.882v27.627h165.763v-27.627c0-45.78 37.133-82.882 82.882-82.882s82.882 37.101 82.882 82.882v27.627h55.255c30.501 0 55.255-24.726 55.255-55.255v-607.797c-0.002-30.504-24.754-55.255-55.256-55.255v0zM666.816 570.564h-607.798v-469.66h607.797v469.66h0.001zM197.154 432.428h-82.882v82.882h82.882v-82.882zM197.154 294.294h-82.882v82.881h82.882v-82.881zM197.154 156.158h-82.882v82.882h82.882v-82.882zM335.289 432.428h-82.881v82.882h82.882v-82.882h-0.001zM335.289 294.294h-82.881v82.881h82.882v-82.881h-0.001zM335.289 156.158h-82.881v82.882h82.882v-82.882h-0.001zM473.425 432.428h-82.882v82.882h82.882v-82.882zM473.425 294.294h-82.882v82.881h82.882v-82.881zM473.425 156.158h-82.882v82.882h82.882v-82.882zM611.561 432.428h-82.882v82.882h82.882v-82.882zM611.561 294.294h-82.882v82.881h82.882v-82.881zM611.561 156.158h-82.882v82.882h82.882v-82.882zM527.824 681.073c-30.061 0-54.4 24.368-54.4 54.4v56.963c0 30.062 24.338 54.401 54.4 54.401 30.059 0 54.396-24.337 54.396-54.401v-56.963c0-30.032-24.337-54.4-54.396-54.4v0zM196.3 681.073c-30.062 0-54.401 24.368-54.401 54.4v56.963c0 30.062 24.337 54.401 54.401 54.401 30.056 0 54.395-24.337 54.395-54.401v-56.963c-0.001-30.032-24.369-54.4-54.395-54.4v0z" />
<glyph unicode="&#xe952;" glyph-name="wx-success" d="M984.801 422.955c0 107.299-103.433 196.354-237.699 211.458-36.613 122.038-180.52 210.089-344.907 210.089-195.212 0-354.025-121.777-354.025-271.465 0-84.594 51.594-164.582 138.55-215.634l-46.070-103.997c-4.23-9.559-2.225-20.541 5.108-27.986 4.722-4.794 11.289-7.543 18.019-7.543 3.407 0 6.73 0.679 9.891 2.016l190.625 81.039c3.486-0.271 6.86-0.405 10.238-0.405 4.74 0 8.912 0.256 12.944 0.509 4.353 0.267 8.851 0.542 14.728 0.542 23.568 0 47.147 1.777 70.083 5.292 0.285 0.043 0.553 0.119 0.834 0.173 49.61-58.812 135.722-97.834 233.523-97.834 4.44 0 7.752-0.202 11.369-0.419 4.823-0.3 11.459-0.527 17.391-0.145l140.794-66.279c2.868-1.355 6.065-2.070 9.241-2.070 5.393 0 10.567 1.994 14.558 5.617 6.506 5.896 8.807 15.053 5.863 23.326l-29.875 83.936c68.32 40.204 108.819 103.097 108.819 169.777zM402.198 352.149c-7.449 0-13.204-0.358-17.857-0.643-6.654-0.405-11.723-0.611-18.106 0.018-5.159 1.17-10.599 0.679-15.476-1.391l-137.915-58.627 29.561 66.723c5.469 12.348 0.3 26.772-11.77 32.838-82.585 41.486-131.889 109.517-131.889 181.973 0 121.799 136.126 220.89 303.45 220.89 134.577 0 252.492-65.097 290.637-157.498-146.989-5.549-264.359-99.174-264.359-213.477 0-24.034 5.267-47.129 14.826-68.71-13.587-1.347-27.332-2.095-41.103-2.095zM839.625 282.714c-9.757-4.902-14.352-16.354-10.689-26.635l18.619-52.316-99.264 46.728c-2.774 1.308-5.921 2.001-9.107 2.001-1.337 0-2.68-0.119-3.995-0.354-4.909-0.524-9.671-0.376-14.714-0.069-3.8 0.228-8.11 0.491-13.832 0.491-129.476 0-234.813 76.441-234.813 170.398s105.337 170.395 234.813 170.395 234.813-76.441 234.813-170.395c-0.004-55.784-38.069-108.213-101.829-140.245zM292.728 703.53c-24.901 0-45.156-20.255-45.156-45.156s20.255-45.156 45.156-45.156 45.156 20.255 45.156 45.156-20.259 45.156-45.156 45.156zM546.463 613.218c24.901 0 45.156 20.255 45.156 45.156s-20.255 45.156-45.156 45.156-45.156-20.255-45.156-45.156 20.255-45.156 45.156-45.156zM846.2 531.926c-6.788 0-13.265-2.738-18.276-7.752l-150.663-153.286-78.409 78.395c-4.931 4.487-11.318 6.954-17.979 6.954-6.784 0-13.077-2.554-17.723-7.192-9.439-9.447-9.548-25.465 0.004-35.955l95.5-95.497c5-5.003 11.275-7.539 18.655-7.539 7.875 0 14.562 2.756 18.883 7.77l167.649 170.351c4.956 4.591 7.792 11.163 7.789 18.070 0 6.86-2.8 13.392-7.695 17.976-4.642 4.974-10.924 7.705-17.734 7.705z" />
<glyph unicode="&#xe953;" glyph-name="wx-fail" d="M984.804 422.951c0 107.295-103.433 196.35-237.695 211.454-36.609 122.038-180.52 210.092-344.911 210.092-195.212 0-354.025-121.777-354.025-271.465 0-84.594 51.594-164.582 138.55-215.638l-46.070-103.997c-4.23-9.559-2.225-20.544 5.108-27.986 4.725-4.794 11.289-7.543 18.019-7.543 3.421 0 6.752 0.679 9.891 2.016l190.628 81.039c3.486-0.271 6.86-0.401 10.238-0.401 4.779 0 8.934 0.256 12.965 0.509 4.364 0.264 8.88 0.538 14.703 0.538 23.579 0 47.158 1.781 70.079 5.292 0.285 0.043 0.556 0.119 0.834 0.173 49.61-58.812 135.718-97.834 233.523-97.834 4.501 0 7.843-0.202 11.372-0.415 4.819-0.3 11.455-0.527 17.391-0.145l140.805-66.282c2.865-1.351 6.055-2.063 9.226-2.063 5.39 0 10.559 1.99 14.562 5.614 6.499 5.896 8.8 15.050 5.859 23.326l-29.875 83.936c68.323 40.204 108.823 103.097 108.823 169.777zM839.614 282.706c-9.75-4.906-14.345-16.357-10.682-26.635l18.619-52.313-99.264 46.728c-2.774 1.308-5.921 2.001-9.107 2.001-1.337 0-2.68-0.119-4.003-0.354-4.902-0.527-9.837-0.376-14.522-0.079-3.638 0.224-8.168 0.502-14.024 0.502-129.476 0-234.813 76.441-234.813 170.402 0 93.954 105.337 170.391 234.813 170.391s234.813-76.437 234.813-170.391c0.007-55.788-38.058-108.216-101.829-140.252zM242.413 358.222c5.469 12.344 0.3 26.769-11.77 32.841-82.585 41.486-131.889 109.513-131.889 181.973 0 121.799 136.126 220.89 303.45 220.89 134.58 0 252.496-65.097 290.64-157.502-146.993-5.545-264.367-99.17-264.367-213.474 0-24.034 5.267-47.129 14.826-68.71-13.587-1.347-27.332-2.095-41.099-2.095-7.445 0-13.2-0.358-17.857-0.643-6.651-0.405-11.723-0.611-18.099 0.018-5.159 1.17-10.595 0.686-15.48-1.391l-137.915-58.631 29.557 66.723zM336.078 658.374c0-23.942-19.408-43.35-43.35-43.35s-43.35 19.408-43.35 43.35c0 23.942 19.408 43.35 43.35 43.35s43.35-19.408 43.35-43.35zM589.813 658.374c0-23.942-19.408-43.35-43.35-43.35s-43.35 19.408-43.35 43.35c0 23.942 19.408 43.35 43.35 43.35s43.35-19.408 43.35-43.35zM816.65 508.491c-6.12 6.203-16.126 6.25-22.314 0.13l-68.327-67.572-67.283 67.492c-6.17 6.167-16.148 6.199-22.318 0.025-6.167-6.152-6.185-16.141-0.029-22.311l67.193-67.395-67.749-67.019c-6.199-6.141-6.246-16.112-0.123-22.314 3.092-3.125 7.149-4.685 11.217-4.685 4.006 0 8.020 1.528 11.094 4.563l67.839 67.095 68.388-68.616c3.085-3.089 7.124-4.635 11.177-4.635 4.039 0 8.063 1.546 11.137 4.606 6.17 6.152 6.192 16.13 0.036 22.314l-68.298 68.518 68.24 67.492c6.195 6.12 6.242 16.108 0.119 22.311z" />
<glyph unicode="&#xe954;" glyph-name="wx-waiting" d="M983.93 422.947c0 107.302-103.433 196.358-237.699 211.461-36.605 122.038-180.517 210.085-344.907 210.085-195.212 0-354.025-121.774-354.025-271.465 0-84.587 51.594-164.586 138.554-215.627l-46.070-104c-4.23-9.559-2.225-20.544 5.108-27.982 4.722-4.79 11.289-7.547 18.016-7.547 3.407 0 6.734 0.679 9.891 2.012l190.625 81.043c3.486-0.264 6.86-0.397 10.238-0.397 4.74 0 8.912 0.253 12.944 0.506 4.357 0.26 8.851 0.542 14.728 0.542 23.568 0 47.147 1.785 70.083 5.296 0.285 0.040 0.549 0.119 0.831 0.17 49.61-58.812 135.718-97.837 233.523-97.837 4.443 0 7.76-0.199 11.372-0.423 4.819-0.285 11.459-0.527 17.387-0.134l140.801-66.286c2.872-1.351 6.065-2.063 9.241-2.063 5.39 0 10.559 1.983 14.558 5.617 6.503 5.888 8.8 15.046 5.863 23.326l-29.872 83.929c68.309 40.207 108.812 103.108 108.812 169.773zM401.324 352.146c-7.449 0-13.204-0.35-17.857-0.639-6.658-0.401-11.723-0.6-18.102 0.025-5.159 1.167-10.599 0.679-15.476-1.394l-137.915-58.627 29.561 66.727c5.473 12.344 0.3 26.765-11.77 32.838-82.582 41.486-131.889 109.509-131.889 181.965 0 121.803 136.126 220.89 303.45 220.89 134.566 0 252.496-65.101 290.633-157.502-146.986-5.545-264.356-99.174-264.356-213.481 0-24.038 5.267-47.125 14.826-68.71-13.59-1.34-27.336-2.092-41.107-2.092zM838.754 282.717c-9.768-4.902-14.36-16.357-10.697-26.639l18.619-52.313-99.268 46.724c-2.774 1.304-5.921 2.001-9.104 2.001-1.34 0-2.68-0.112-3.999-0.361-4.909-0.52-9.671-0.376-14.717-0.065-3.8 0.224-8.11 0.488-13.836 0.488-129.465 0-234.809 76.444-234.809 170.398 0 93.965 105.344 170.398 234.809 170.398 129.479 0 234.816-76.441 234.816-170.398 0.011-55.773-38.058-108.205-101.815-140.234zM291.85 703.527c-24.901 0-45.156-20.255-45.156-45.153 0-24.905 20.255-45.16 45.156-45.16s45.156 20.248 45.156 45.153-20.255 45.16-45.156 45.16zM545.585 613.214c24.908 0 45.16 20.248 45.16 45.153s-20.252 45.156-45.16 45.156c-24.901 0-45.149-20.252-45.149-45.156 0-24.894 20.248-45.153 45.149-45.153zM722.569 471.051h-132.131v-98.123h132.131v-67.091l132.145 115.615-132.145 115.647z" />
<glyph unicode="&#xe959;" glyph-name="sign-full" horiz-adv-x="1021" d="M512.231-49.828c274.079 0.925 495.447 223.864 494.568 497.967-0.994 274.056-223.91 495.377-497.967 494.522-273.987-0.971-495.377-223.841-494.476-497.874 0.971-274.149 223.887-495.493 497.874-494.614v0 0zM446.596 683.678c-0.046 19.443 15.837 35.373 35.211 35.419l55.648 0.208c19.374 0.069 35.303-15.698 35.396-35.164l0.786-244.949c0.069-19.374-15.698-35.373-35.164-35.442l-55.579-0.162c-19.397-0.092-35.349 15.721-35.419 35.188l-0.879 244.903zM448.029 264.248c-0.069 19.42 15.837 35.396 35.164 35.465l55.625 0.139c19.466 0.069 35.419-15.721 35.465-35.164l0.208-55.509c0.046-19.466-15.79-35.396-35.188-35.465l-55.625-0.208c-19.374-0.069-35.349 15.79-35.419 35.188l-0.231 55.556z" />
<glyph unicode="&#xe95b;" glyph-name="phone" d="M768 960h-512c-53.056 0-96-42.976-96-96v-832c0-53.056 42.976-96 96-96h512c52.992 0 96 43.008 96 96v832c0 53.056-43.008 96-96 96zM800 32c0-17.632-14.368-32-32-32h-512c-17.664 0-32 14.304-32 32v64.128h576v-64.128zM800 128.128h-576v639.872h576v-639.872zM800 800h-576v64c0 17.664 14.336 32 32 32h512c17.632 0 32-14.336 32-32v-64zM576 848c0-8.832-7.2-16-16-16h-96c-8.864 0-16 7.168-16 16v0c0 8.864 7.136 16 16 16h96c8.8 0 16-7.136 16-16v0zM544 48.128c0-8.8-7.2-16-16-16h-32c-8.832 0-16 7.2-16 16v0c0 8.864 7.168 16 16 16h32c8.8 0 16-7.136 16-16v0z" />
<glyph unicode="&#xe95c;" glyph-name="mail" d="M896 800h-768c-70.688 0-128-57.344-128-128v-416c0-70.688 57.312-128 128-128h768c70.688 0 128 57.312 128 128v416c0 70.656-57.312 128-128 128zM64 632l223.968-168-223.968-168v336zM960 256c0-35.328-28.736-64-64-64h-768c-35.296 0-64 28.672-64 64l250.624 188 139.776-104.864c17.056-12.736 37.312-19.2 57.6-19.2 20.256 0 40.512 6.432 57.568 19.2l139.808 104.864 250.624-188zM960 296l-224 168 224 168v-336zM550.368 364.736c-11.168-8.384-24.416-12.8-38.368-12.8s-27.232 4.448-38.4 12.8l-409.6 307.264c0 35.296 28.704 64 64 64h768c35.264 0 64-28.704 64-64l-409.632-307.264z" />
<glyph unicode="&#xe95d;" glyph-name="survey" d="M216.346 889.754h402.606c9.134 0 17.812-3.794 23.946-9.882l245.862-245.77c6.328-6.733 9.795-15.442 9.795-24.12v-512.758c0-25.088-10.455-47.278-26.757-64.118h-0.2l-0.461-0.558c-16.727-16.41-39.101-26.291-63.703-26.291h-591.089c-24.776 0-47.636 10.44-64.333 26.849-16.328 15.862-26.557 39.030-26.557 64.118v701.338c0 25.108 10.225 47.821 26.557 64.466 16.696 16.63 39.557 26.726 64.333 26.726v0zM830.72 589.542v0h-154.998c-21.079 0-40.443 8.909-54.564 22.815l-0.891 1.203c-13.46 13.804-21.74 33.157-21.74 53.366v154.911h-382.182c-6.502 0-11.971-2.934-16.302-6.861-3.722-4.009-6.728-9.882-6.728-16.415v-701.343c0-5.97 3.005-12.042 6.728-16.179v0c4.127-4.572 9.8-6.958 16.302-6.958h591.084c6.328 0 11.976 2.391 16.328 6.958h0.456c3.896 4.142 6.508 10.209 6.508 16.179v492.324zM796.145 630.502v0l-156.744 156.744v-120.32c0-9.139 3.497-18.376 9.769-24.893l0.655-0.66c6.533-6.728 16.302-10.87 25.897-10.87h120.422zM259.2 590.874v0c-8.238 0-14.807 6.252-14.807 14.054 0 8.223 6.569 14.362 14.807 14.362h102.589c7.788 0 14.188-6.134 14.188-14.362 0-7.803-6.4-14.054-14.188-14.054h-102.589zM259.2 520.684v0c-8.238 0-14.807 6.252-14.807 14.054 0 8.223 6.569 14.362 14.807 14.362h102.589c7.788 0 14.188-6.134 14.188-14.362 0-7.803-6.4-14.054-14.188-14.054h-102.589zM430.72 731.244v0c-8.238 0-14.807 6.252-14.807 14.054 0 8.223 6.569 14.362 14.807 14.362h102.589c7.788 0 14.188-6.134 14.188-14.362 0-7.803-6.4-14.054-14.188-14.054h-102.589zM430.72 661.059v0c-8.238 0-14.807 6.252-14.807 14.054 0 8.223 6.569 14.362 14.807 14.362h102.589c7.788 0 14.188-6.134 14.188-14.362 0-7.803-6.4-14.054-14.188-14.054h-102.589zM430.72 590.874v0c-8.238 0-14.807 6.252-14.807 14.054 0 8.223 6.569 14.362 14.807 14.362h102.589c7.788 0 14.188-6.134 14.188-14.362 0-7.803-6.4-14.054-14.188-14.054h-102.589zM430.72 520.684v0c-8.238 0-14.807 6.252-14.807 14.054 0 8.223 6.569 14.362 14.807 14.362h102.589c7.788 0 14.188-6.134 14.188-14.362 0-7.803-6.4-14.054-14.188-14.054h-102.589zM375.982 671.401c0-5.652-4.588-10.24-10.24-10.24h-111.109c-5.652 0-10.24 4.588-10.24 10.24v78.121c0 5.652 4.588 10.24 10.24 10.24h111.109c5.652 0 10.24-4.588 10.24-10.24v-78.121z" />
<glyph unicode="&#xe9e5;" glyph-name="ding-fail" d="M512-51.2c282.77 0 512 229.23 512 512s-229.23 512-512 512-512-229.23-512-512 229.23-512 512-512zM512 876.8c229.75 0 416-186.25 416-416s-186.25-416-416-416-416 186.25-416 416 186.25 416 416 416zM256 652.8c0 35.346 28.654 64 64 64s64-28.654 64-64c0-35.346-28.654-64-64-64s-64 28.654-64 64zM640 652.8c0 35.346 28.654 64 64 64s64-28.654 64-64c0-35.346-28.654-64-64-64s-64 28.654-64 64zM319.902 192.060l-82.33 49.396c55.962 93.070 157.916 155.344 274.426 155.344 116.508 0 218.462-62.274 274.426-155.344l-82.326-49.396c-39.174 65.148-110.542 108.74-192.098 108.74-81.558 0-152.924-43.594-192.098-108.74z" />
<glyph unicode="&#xe9eb;" glyph-name="ding-success" d="M512-51.2c282.77 0 512 229.23 512 512s-229.23 512-512 512-512-229.23-512-512 229.23-512 512-512zM512 876.8c229.75 0 416-186.25 416-416s-186.25-416-416-416-416 186.25-416 416 186.25 416 416 416zM800 716.8c17.6 0 32-14.4 32-32v-96c0-35.2-28.8-64-64-64h-128c-35.2 0-64 28.8-64 64h-128c0-35.2-28.8-64-64-64h-128c-35.2 0-64 28.8-64 64v96c0 17.6 14.4 32 32 32h192c17.6 0 32-14.4 32-32v-32h128v32c0 17.6 14.4 32 32 32h192zM512 204.8c93.206 0 174.772 49.818 219.546 124.278l54.88-32.934c-55.966-93.070-157.916-155.344-274.426-155.344-48.458 0-94.384 10.796-135.54 30.082l33.162 55.278c31.354-13.714 65.964-21.36 102.378-21.36z" />
<glyph unicode="&#xe9f2;" glyph-name="shocked2" d="M512 960c-282.77 0-512-229.23-512-512s229.23-512 512-512 512 229.23 512 512-229.23 512-512 512zM320 512c-35.346 0-64 42.98-64 96s28.654 96 64 96 64-42.98 64-96-28.654-96-64-96zM512 128c-70.692 0-128 57.308-128 128s57.308 128 128 128c70.692 0 128-57.308 128-128s-57.308-128-128-128zM704 512c-35.346 0-64 42.98-64 96s28.654 96 64 96 64-42.98 64-96-28.654-96-64-96z" />
<glyph unicode="&#xe9f3;" glyph-name="baffled" d="M512-64c282.77 0 512 229.23 512 512s-229.23 512-512 512-512-229.23-512-512 229.23-512 512-512zM512 864c229.75 0 416-186.25 416-416s-186.25-416-416-416-416 186.25-416 416 186.25 416 416 416zM384 544c0-17.673-14.327-32-32-32s-32 14.327-32 32c0 17.673 14.327 32 32 32s32-14.327 32-32zM352 640c53.020 0 96-42.98 96-96s-42.98-96-96-96-96 42.98-96 96 42.98 96 96 96zM352 704c-88.224 0-160-71.776-160-160s71.776-160 160-160 160 71.776 160 160-71.776 160-160 160v0zM704 544c0-17.673-14.327-32-32-32s-32 14.327-32 32c0 17.673 14.327 32 32 32s32-14.327 32-32zM672 640c53.020 0 96-42.98 96-96s-42.98-96-96-96-96 42.98-96 96 42.98 96 96 96zM672 704c-88.224 0-160-71.776-160-160s71.776-160 160-160 160 71.776 160 160-71.776 160-160 160v0zM384 256h256v-64h-256v64z" />
<glyph unicode="&#xe9fd;" glyph-name="ding-waiting" d="M512-51.2c282.77 0 512 229.23 512 512s-229.23 512-512 512-512-229.23-512-512 229.23-512 512-512zM512 876.8c229.75 0 416-186.25 416-416s-186.25-416-416-416-416 186.25-416 416 186.25 416 416 416zM640 300.8c0-88.366-57.308-160-128.002-160s-128.002 71.634-128.002 160c0 88.366 57.308 160 128.002 160s128.002-71.634 128.002-160zM416 632.8c-8.19 0-16.378 3.124-22.626 9.374-19.334 19.332-63.412 19.332-82.746 0-12.496-12.498-32.758-12.498-45.254 0-12.498 12.496-12.498 32.758 0 45.254 44.528 44.53 128.726 44.53 173.254 0 12.498-12.496 12.498-32.758 0-45.254-6.25-6.25-14.438-9.374-22.628-9.374zM736 632.8c-8.19 0-16.378 3.124-22.626 9.374-19.332 19.332-63.414 19.332-82.746 0-12.496-12.498-32.758-12.498-45.254 0-12.498 12.496-12.498 32.758 0 45.254 44.528 44.53 128.726 44.53 173.254 0 12.498-12.496 12.498-32.758 0-45.254-6.25-6.25-14.438-9.374-22.628-9.374z" />
<glyph unicode="&#xea50;" glyph-name="to-top" d="M736.014 512c-8.908 0-17.77 3.698-24.096 10.928l-199.918 228.478-199.918-228.478c-11.636-13.3-31.856-14.65-45.154-3.010-13.3 11.638-14.648 31.854-3.010 45.154l224 256c6.076 6.944 14.854 10.928 24.082 10.928s18.006-3.984 24.082-10.928l224-256c11.638-13.3 10.292-33.516-3.010-45.154-6.070-5.312-13.582-7.918-21.058-7.918z" />
</font>
</defs>
</svg>
